<?xml version="1.0" encoding="utf-8" standalone="no"?>
<!DOCTYPE svg PUBLIC "-//W3C//DTD SVG 1.1//EN"
  "http://www.w3.org/Graphics/SVG/1.1/DTD/svg11.dtd">
<!-- Created with matplotlib (https://matplotlib.org/) -->
<svg height="281.073625pt" version="1.1" viewBox="0 0 673.079375 281.073625" width="673.079375pt" xmlns="http://www.w3.org/2000/svg" xmlns:xlink="http://www.w3.org/1999/xlink">
 <metadata>
  <rdf:RDF xmlns:cc="http://creativecommons.org/ns#" xmlns:dc="http://purl.org/dc/elements/1.1/" xmlns:rdf="http://www.w3.org/1999/02/22-rdf-syntax-ns#">
   <cc:Work>
    <dc:type rdf:resource="http://purl.org/dc/dcmitype/StillImage"/>
    <dc:date>2021-10-06T20:07:32.597210</dc:date>
    <dc:format>image/svg+xml</dc:format>
    <dc:creator>
     <cc:Agent>
      <dc:title>Matplotlib v3.3.2, https://matplotlib.org/</dc:title>
     </cc:Agent>
    </dc:creator>
   </cc:Work>
  </rdf:RDF>
 </metadata>
 <defs>
  <style type="text/css">*{stroke-linecap:butt;stroke-linejoin:round;}</style>
 </defs>
 <g id="figure_1">
  <g id="patch_1">
   <path d="M 0 281.073625 
L 673.079375 281.073625 
L 673.079375 0 
L 0 0 
z
" style="fill:#ffffff;"/>
  </g>
  <g id="axes_1">
   <g id="patch_2">
    <path d="M 52.079375 241.58175 
L 665.879375 241.58175 
L 665.879375 24.14175 
L 52.079375 24.14175 
z
" style="fill:#e5e5e5;"/>
   </g>
   <g id="matplotlib.axis_1">
    <g id="xtick_1">
     <g id="line2d_1">
      <path clip-path="url(#p529aa1fe10)" d="M 79.979375 241.58175 
L 79.979375 24.14175 
" style="fill:none;stroke:#ffffff;stroke-linecap:square;stroke-width:0.8;"/>
     </g>
     <g id="line2d_2">
      <defs>
       <path d="M 0 0 
L 0 3.5 
" id="mf8c44e7fc5" style="stroke:#555555;stroke-width:0.8;"/>
      </defs>
      <g>
       <use style="fill:#555555;stroke:#555555;stroke-width:0.8;" x="79.979375" xlink:href="#mf8c44e7fc5" y="241.58175"/>
      </g>
     </g>
     <g id="text_1">
      <!-- 2021-01 -->
      <g style="fill:#555555;" transform="translate(59.087969 256.180187)scale(0.1 -0.1)">
       <defs>
        <path d="M 19.1875 8.296875 
L 53.609375 8.296875 
L 53.609375 0 
L 7.328125 0 
L 7.328125 8.296875 
Q 12.9375 14.109375 22.625 23.890625 
Q 32.328125 33.6875 34.8125 36.53125 
Q 39.546875 41.84375 41.421875 45.53125 
Q 43.3125 49.21875 43.3125 52.78125 
Q 43.3125 58.59375 39.234375 62.25 
Q 35.15625 65.921875 28.609375 65.921875 
Q 23.96875 65.921875 18.8125 64.3125 
Q 13.671875 62.703125 7.8125 59.421875 
L 7.8125 69.390625 
Q 13.765625 71.78125 18.9375 73 
Q 24.125 74.21875 28.421875 74.21875 
Q 39.75 74.21875 46.484375 68.546875 
Q 53.21875 62.890625 53.21875 53.421875 
Q 53.21875 48.921875 51.53125 44.890625 
Q 49.859375 40.875 45.40625 35.40625 
Q 44.1875 33.984375 37.640625 27.21875 
Q 31.109375 20.453125 19.1875 8.296875 
z
" id="DejaVuSans-50"/>
        <path d="M 31.78125 66.40625 
Q 24.171875 66.40625 20.328125 58.90625 
Q 16.5 51.421875 16.5 36.375 
Q 16.5 21.390625 20.328125 13.890625 
Q 24.171875 6.390625 31.78125 6.390625 
Q 39.453125 6.390625 43.28125 13.890625 
Q 47.125 21.390625 47.125 36.375 
Q 47.125 51.421875 43.28125 58.90625 
Q 39.453125 66.40625 31.78125 66.40625 
z
M 31.78125 74.21875 
Q 44.046875 74.21875 50.515625 64.515625 
Q 56.984375 54.828125 56.984375 36.375 
Q 56.984375 17.96875 50.515625 8.265625 
Q 44.046875 -1.421875 31.78125 -1.421875 
Q 19.53125 -1.421875 13.0625 8.265625 
Q 6.59375 17.96875 6.59375 36.375 
Q 6.59375 54.828125 13.0625 64.515625 
Q 19.53125 74.21875 31.78125 74.21875 
z
" id="DejaVuSans-48"/>
        <path d="M 12.40625 8.296875 
L 28.515625 8.296875 
L 28.515625 63.921875 
L 10.984375 60.40625 
L 10.984375 69.390625 
L 28.421875 72.90625 
L 38.28125 72.90625 
L 38.28125 8.296875 
L 54.390625 8.296875 
L 54.390625 0 
L 12.40625 0 
z
" id="DejaVuSans-49"/>
        <path d="M 4.890625 31.390625 
L 31.203125 31.390625 
L 31.203125 23.390625 
L 4.890625 23.390625 
z
" id="DejaVuSans-45"/>
       </defs>
       <use xlink:href="#DejaVuSans-50"/>
       <use x="63.623047" xlink:href="#DejaVuSans-48"/>
       <use x="127.246094" xlink:href="#DejaVuSans-50"/>
       <use x="190.869141" xlink:href="#DejaVuSans-49"/>
       <use x="254.492188" xlink:href="#DejaVuSans-45"/>
       <use x="290.576172" xlink:href="#DejaVuSans-48"/>
       <use x="354.199219" xlink:href="#DejaVuSans-49"/>
      </g>
     </g>
    </g>
    <g id="xtick_2">
     <g id="line2d_3">
      <path clip-path="url(#p529aa1fe10)" d="M 176.079375 241.58175 
L 176.079375 24.14175 
" style="fill:none;stroke:#ffffff;stroke-linecap:square;stroke-width:0.8;"/>
     </g>
     <g id="line2d_4">
      <g>
       <use style="fill:#555555;stroke:#555555;stroke-width:0.8;" x="176.079375" xlink:href="#mf8c44e7fc5" y="241.58175"/>
      </g>
     </g>
     <g id="text_2">
      <!-- 2021-02 -->
      <g style="fill:#555555;" transform="translate(155.187969 256.180187)scale(0.1 -0.1)">
       <use xlink:href="#DejaVuSans-50"/>
       <use x="63.623047" xlink:href="#DejaVuSans-48"/>
       <use x="127.246094" xlink:href="#DejaVuSans-50"/>
       <use x="190.869141" xlink:href="#DejaVuSans-49"/>
       <use x="254.492188" xlink:href="#DejaVuSans-45"/>
       <use x="290.576172" xlink:href="#DejaVuSans-48"/>
       <use x="354.199219" xlink:href="#DejaVuSans-50"/>
      </g>
     </g>
    </g>
    <g id="xtick_3">
     <g id="line2d_5">
      <path clip-path="url(#p529aa1fe10)" d="M 262.879375 241.58175 
L 262.879375 24.14175 
" style="fill:none;stroke:#ffffff;stroke-linecap:square;stroke-width:0.8;"/>
     </g>
     <g id="line2d_6">
      <g>
       <use style="fill:#555555;stroke:#555555;stroke-width:0.8;" x="262.879375" xlink:href="#mf8c44e7fc5" y="241.58175"/>
      </g>
     </g>
     <g id="text_3">
      <!-- 2021-03 -->
      <g style="fill:#555555;" transform="translate(241.987969 256.180187)scale(0.1 -0.1)">
       <defs>
        <path d="M 40.578125 39.3125 
Q 47.65625 37.796875 51.625 33 
Q 55.609375 28.21875 55.609375 21.1875 
Q 55.609375 10.40625 48.1875 4.484375 
Q 40.765625 -1.421875 27.09375 -1.421875 
Q 22.515625 -1.421875 17.65625 -0.515625 
Q 12.796875 0.390625 7.625 2.203125 
L 7.625 11.71875 
Q 11.71875 9.328125 16.59375 8.109375 
Q 21.484375 6.890625 26.8125 6.890625 
Q 36.078125 6.890625 40.9375 10.546875 
Q 45.796875 14.203125 45.796875 21.1875 
Q 45.796875 27.640625 41.28125 31.265625 
Q 36.765625 34.90625 28.71875 34.90625 
L 20.21875 34.90625 
L 20.21875 43.015625 
L 29.109375 43.015625 
Q 36.375 43.015625 40.234375 45.921875 
Q 44.09375 48.828125 44.09375 54.296875 
Q 44.09375 59.90625 40.109375 62.90625 
Q 36.140625 65.921875 28.71875 65.921875 
Q 24.65625 65.921875 20.015625 65.03125 
Q 15.375 64.15625 9.8125 62.3125 
L 9.8125 71.09375 
Q 15.4375 72.65625 20.34375 73.4375 
Q 25.25 74.21875 29.59375 74.21875 
Q 40.828125 74.21875 47.359375 69.109375 
Q 53.90625 64.015625 53.90625 55.328125 
Q 53.90625 49.265625 50.4375 45.09375 
Q 46.96875 40.921875 40.578125 39.3125 
z
" id="DejaVuSans-51"/>
       </defs>
       <use xlink:href="#DejaVuSans-50"/>
       <use x="63.623047" xlink:href="#DejaVuSans-48"/>
       <use x="127.246094" xlink:href="#DejaVuSans-50"/>
       <use x="190.869141" xlink:href="#DejaVuSans-49"/>
       <use x="254.492188" xlink:href="#DejaVuSans-45"/>
       <use x="290.576172" xlink:href="#DejaVuSans-48"/>
       <use x="354.199219" xlink:href="#DejaVuSans-51"/>
      </g>
     </g>
    </g>
    <g id="xtick_4">
     <g id="line2d_7">
      <path clip-path="url(#p529aa1fe10)" d="M 358.979375 241.58175 
L 358.979375 24.14175 
" style="fill:none;stroke:#ffffff;stroke-linecap:square;stroke-width:0.8;"/>
     </g>
     <g id="line2d_8">
      <g>
       <use style="fill:#555555;stroke:#555555;stroke-width:0.8;" x="358.979375" xlink:href="#mf8c44e7fc5" y="241.58175"/>
      </g>
     </g>
     <g id="text_4">
      <!-- 2021-04 -->
      <g style="fill:#555555;" transform="translate(338.087969 256.180187)scale(0.1 -0.1)">
       <defs>
        <path d="M 37.796875 64.3125 
L 12.890625 25.390625 
L 37.796875 25.390625 
z
M 35.203125 72.90625 
L 47.609375 72.90625 
L 47.609375 25.390625 
L 58.015625 25.390625 
L 58.015625 17.1875 
L 47.609375 17.1875 
L 47.609375 0 
L 37.796875 0 
L 37.796875 17.1875 
L 4.890625 17.1875 
L 4.890625 26.703125 
z
" id="DejaVuSans-52"/>
       </defs>
       <use xlink:href="#DejaVuSans-50"/>
       <use x="63.623047" xlink:href="#DejaVuSans-48"/>
       <use x="127.246094" xlink:href="#DejaVuSans-50"/>
       <use x="190.869141" xlink:href="#DejaVuSans-49"/>
       <use x="254.492188" xlink:href="#DejaVuSans-45"/>
       <use x="290.576172" xlink:href="#DejaVuSans-48"/>
       <use x="354.199219" xlink:href="#DejaVuSans-52"/>
      </g>
     </g>
    </g>
    <g id="xtick_5">
     <g id="line2d_9">
      <path clip-path="url(#p529aa1fe10)" d="M 451.979375 241.58175 
L 451.979375 24.14175 
" style="fill:none;stroke:#ffffff;stroke-linecap:square;stroke-width:0.8;"/>
     </g>
     <g id="line2d_10">
      <g>
       <use style="fill:#555555;stroke:#555555;stroke-width:0.8;" x="451.979375" xlink:href="#mf8c44e7fc5" y="241.58175"/>
      </g>
     </g>
     <g id="text_5">
      <!-- 2021-05 -->
      <g style="fill:#555555;" transform="translate(431.087969 256.180187)scale(0.1 -0.1)">
       <defs>
        <path d="M 10.796875 72.90625 
L 49.515625 72.90625 
L 49.515625 64.59375 
L 19.828125 64.59375 
L 19.828125 46.734375 
Q 21.96875 47.46875 24.109375 47.828125 
Q 26.265625 48.1875 28.421875 48.1875 
Q 40.625 48.1875 47.75 41.5 
Q 54.890625 34.8125 54.890625 23.390625 
Q 54.890625 11.625 47.5625 5.09375 
Q 40.234375 -1.421875 26.90625 -1.421875 
Q 22.3125 -1.421875 17.546875 -0.640625 
Q 12.796875 0.140625 7.71875 1.703125 
L 7.71875 11.625 
Q 12.109375 9.234375 16.796875 8.0625 
Q 21.484375 6.890625 26.703125 6.890625 
Q 35.15625 6.890625 40.078125 11.328125 
Q 45.015625 15.765625 45.015625 23.390625 
Q 45.015625 31 40.078125 35.4375 
Q 35.15625 39.890625 26.703125 39.890625 
Q 22.75 39.890625 18.8125 39.015625 
Q 14.890625 38.140625 10.796875 36.28125 
z
" id="DejaVuSans-53"/>
       </defs>
       <use xlink:href="#DejaVuSans-50"/>
       <use x="63.623047" xlink:href="#DejaVuSans-48"/>
       <use x="127.246094" xlink:href="#DejaVuSans-50"/>
       <use x="190.869141" xlink:href="#DejaVuSans-49"/>
       <use x="254.492188" xlink:href="#DejaVuSans-45"/>
       <use x="290.576172" xlink:href="#DejaVuSans-48"/>
       <use x="354.199219" xlink:href="#DejaVuSans-53"/>
      </g>
     </g>
    </g>
    <g id="xtick_6">
     <g id="line2d_11">
      <path clip-path="url(#p529aa1fe10)" d="M 548.079375 241.58175 
L 548.079375 24.14175 
" style="fill:none;stroke:#ffffff;stroke-linecap:square;stroke-width:0.8;"/>
     </g>
     <g id="line2d_12">
      <g>
       <use style="fill:#555555;stroke:#555555;stroke-width:0.8;" x="548.079375" xlink:href="#mf8c44e7fc5" y="241.58175"/>
      </g>
     </g>
     <g id="text_6">
      <!-- 2021-06 -->
      <g style="fill:#555555;" transform="translate(527.187969 256.180187)scale(0.1 -0.1)">
       <defs>
        <path d="M 33.015625 40.375 
Q 26.375 40.375 22.484375 35.828125 
Q 18.609375 31.296875 18.609375 23.390625 
Q 18.609375 15.53125 22.484375 10.953125 
Q 26.375 6.390625 33.015625 6.390625 
Q 39.65625 6.390625 43.53125 10.953125 
Q 47.40625 15.53125 47.40625 23.390625 
Q 47.40625 31.296875 43.53125 35.828125 
Q 39.65625 40.375 33.015625 40.375 
z
M 52.59375 71.296875 
L 52.59375 62.3125 
Q 48.875 64.0625 45.09375 64.984375 
Q 41.3125 65.921875 37.59375 65.921875 
Q 27.828125 65.921875 22.671875 59.328125 
Q 17.53125 52.734375 16.796875 39.40625 
Q 19.671875 43.65625 24.015625 45.921875 
Q 28.375 48.1875 33.59375 48.1875 
Q 44.578125 48.1875 50.953125 41.515625 
Q 57.328125 34.859375 57.328125 23.390625 
Q 57.328125 12.15625 50.6875 5.359375 
Q 44.046875 -1.421875 33.015625 -1.421875 
Q 20.359375 -1.421875 13.671875 8.265625 
Q 6.984375 17.96875 6.984375 36.375 
Q 6.984375 53.65625 15.1875 63.9375 
Q 23.390625 74.21875 37.203125 74.21875 
Q 40.921875 74.21875 44.703125 73.484375 
Q 48.484375 72.75 52.59375 71.296875 
z
" id="DejaVuSans-54"/>
       </defs>
       <use xlink:href="#DejaVuSans-50"/>
       <use x="63.623047" xlink:href="#DejaVuSans-48"/>
       <use x="127.246094" xlink:href="#DejaVuSans-50"/>
       <use x="190.869141" xlink:href="#DejaVuSans-49"/>
       <use x="254.492188" xlink:href="#DejaVuSans-45"/>
       <use x="290.576172" xlink:href="#DejaVuSans-48"/>
       <use x="354.199219" xlink:href="#DejaVuSans-54"/>
      </g>
     </g>
    </g>
    <g id="xtick_7">
     <g id="line2d_13">
      <path clip-path="url(#p529aa1fe10)" d="M 641.079375 241.58175 
L 641.079375 24.14175 
" style="fill:none;stroke:#ffffff;stroke-linecap:square;stroke-width:0.8;"/>
     </g>
     <g id="line2d_14">
      <g>
       <use style="fill:#555555;stroke:#555555;stroke-width:0.8;" x="641.079375" xlink:href="#mf8c44e7fc5" y="241.58175"/>
      </g>
     </g>
     <g id="text_7">
      <!-- 2021-07 -->
      <g style="fill:#555555;" transform="translate(620.187969 256.180187)scale(0.1 -0.1)">
       <defs>
        <path d="M 8.203125 72.90625 
L 55.078125 72.90625 
L 55.078125 68.703125 
L 28.609375 0 
L 18.3125 0 
L 43.21875 64.59375 
L 8.203125 64.59375 
z
" id="DejaVuSans-55"/>
       </defs>
       <use xlink:href="#DejaVuSans-50"/>
       <use x="63.623047" xlink:href="#DejaVuSans-48"/>
       <use x="127.246094" xlink:href="#DejaVuSans-50"/>
       <use x="190.869141" xlink:href="#DejaVuSans-49"/>
       <use x="254.492188" xlink:href="#DejaVuSans-45"/>
       <use x="290.576172" xlink:href="#DejaVuSans-48"/>
       <use x="354.199219" xlink:href="#DejaVuSans-55"/>
      </g>
     </g>
    </g>
    <g id="text_8">
     <!-- Date -->
     <g style="fill:#555555;" transform="translate(344.638438 271.378)scale(0.12 -0.12)">
      <defs>
       <path d="M 19.671875 64.796875 
L 19.671875 8.109375 
L 31.59375 8.109375 
Q 46.6875 8.109375 53.6875 14.9375 
Q 60.6875 21.78125 60.6875 36.53125 
Q 60.6875 51.171875 53.6875 57.984375 
Q 46.6875 64.796875 31.59375 64.796875 
z
M 9.8125 72.90625 
L 30.078125 72.90625 
Q 51.265625 72.90625 61.171875 64.09375 
Q 71.09375 55.28125 71.09375 36.53125 
Q 71.09375 17.671875 61.125 8.828125 
Q 51.171875 0 30.078125 0 
L 9.8125 0 
z
" id="DejaVuSans-68"/>
       <path d="M 34.28125 27.484375 
Q 23.390625 27.484375 19.1875 25 
Q 14.984375 22.515625 14.984375 16.5 
Q 14.984375 11.71875 18.140625 8.90625 
Q 21.296875 6.109375 26.703125 6.109375 
Q 34.1875 6.109375 38.703125 11.40625 
Q 43.21875 16.703125 43.21875 25.484375 
L 43.21875 27.484375 
z
M 52.203125 31.203125 
L 52.203125 0 
L 43.21875 0 
L 43.21875 8.296875 
Q 40.140625 3.328125 35.546875 0.953125 
Q 30.953125 -1.421875 24.3125 -1.421875 
Q 15.921875 -1.421875 10.953125 3.296875 
Q 6 8.015625 6 15.921875 
Q 6 25.140625 12.171875 29.828125 
Q 18.359375 34.515625 30.609375 34.515625 
L 43.21875 34.515625 
L 43.21875 35.40625 
Q 43.21875 41.609375 39.140625 45 
Q 35.0625 48.390625 27.6875 48.390625 
Q 23 48.390625 18.546875 47.265625 
Q 14.109375 46.140625 10.015625 43.890625 
L 10.015625 52.203125 
Q 14.9375 54.109375 19.578125 55.046875 
Q 24.21875 56 28.609375 56 
Q 40.484375 56 46.34375 49.84375 
Q 52.203125 43.703125 52.203125 31.203125 
z
" id="DejaVuSans-97"/>
       <path d="M 18.3125 70.21875 
L 18.3125 54.6875 
L 36.8125 54.6875 
L 36.8125 47.703125 
L 18.3125 47.703125 
L 18.3125 18.015625 
Q 18.3125 11.328125 20.140625 9.421875 
Q 21.96875 7.515625 27.59375 7.515625 
L 36.8125 7.515625 
L 36.8125 0 
L 27.59375 0 
Q 17.1875 0 13.234375 3.875 
Q 9.28125 7.765625 9.28125 18.015625 
L 9.28125 47.703125 
L 2.6875 47.703125 
L 2.6875 54.6875 
L 9.28125 54.6875 
L 9.28125 70.21875 
z
" id="DejaVuSans-116"/>
       <path d="M 56.203125 29.59375 
L 56.203125 25.203125 
L 14.890625 25.203125 
Q 15.484375 15.921875 20.484375 11.0625 
Q 25.484375 6.203125 34.421875 6.203125 
Q 39.59375 6.203125 44.453125 7.46875 
Q 49.3125 8.734375 54.109375 11.28125 
L 54.109375 2.78125 
Q 49.265625 0.734375 44.1875 -0.34375 
Q 39.109375 -1.421875 33.890625 -1.421875 
Q 20.796875 -1.421875 13.15625 6.1875 
Q 5.515625 13.8125 5.515625 26.8125 
Q 5.515625 40.234375 12.765625 48.109375 
Q 20.015625 56 32.328125 56 
Q 43.359375 56 49.78125 48.890625 
Q 56.203125 41.796875 56.203125 29.59375 
z
M 47.21875 32.234375 
Q 47.125 39.59375 43.09375 43.984375 
Q 39.0625 48.390625 32.421875 48.390625 
Q 24.90625 48.390625 20.390625 44.140625 
Q 15.875 39.890625 15.1875 32.171875 
z
" id="DejaVuSans-101"/>
      </defs>
      <use xlink:href="#DejaVuSans-68"/>
      <use x="77.001953" xlink:href="#DejaVuSans-97"/>
      <use x="138.28125" xlink:href="#DejaVuSans-116"/>
      <use x="177.490234" xlink:href="#DejaVuSans-101"/>
     </g>
    </g>
   </g>
   <g id="matplotlib.axis_2">
    <g id="ytick_1">
     <g id="line2d_15">
      <path clip-path="url(#p529aa1fe10)" d="M 52.079375 231.345286 
L 665.879375 231.345286 
" style="fill:none;stroke:#ffffff;stroke-linecap:square;stroke-width:0.8;"/>
     </g>
     <g id="line2d_16">
      <defs>
       <path d="M 0 0 
L -3.5 0 
" id="mb53bb9fceb" style="stroke:#555555;stroke-width:0.8;"/>
      </defs>
      <g>
       <use style="fill:#555555;stroke:#555555;stroke-width:0.8;" x="52.079375" xlink:href="#mb53bb9fceb" y="231.345286"/>
      </g>
     </g>
     <g id="text_9">
      <!-- 0.00 -->
      <g style="fill:#555555;" transform="translate(22.81375 235.144504)scale(0.1 -0.1)">
       <defs>
        <path d="M 10.6875 12.40625 
L 21 12.40625 
L 21 0 
L 10.6875 0 
z
" id="DejaVuSans-46"/>
       </defs>
       <use xlink:href="#DejaVuSans-48"/>
       <use x="63.623047" xlink:href="#DejaVuSans-46"/>
       <use x="95.410156" xlink:href="#DejaVuSans-48"/>
       <use x="159.033203" xlink:href="#DejaVuSans-48"/>
      </g>
     </g>
    </g>
    <g id="ytick_2">
     <g id="line2d_17">
      <path clip-path="url(#p529aa1fe10)" d="M 52.079375 203.419052 
L 665.879375 203.419052 
" style="fill:none;stroke:#ffffff;stroke-linecap:square;stroke-width:0.8;"/>
     </g>
     <g id="line2d_18">
      <g>
       <use style="fill:#555555;stroke:#555555;stroke-width:0.8;" x="52.079375" xlink:href="#mb53bb9fceb" y="203.419052"/>
      </g>
     </g>
     <g id="text_10">
      <!-- 0.25 -->
      <g style="fill:#555555;" transform="translate(22.81375 207.218271)scale(0.1 -0.1)">
       <use xlink:href="#DejaVuSans-48"/>
       <use x="63.623047" xlink:href="#DejaVuSans-46"/>
       <use x="95.410156" xlink:href="#DejaVuSans-50"/>
       <use x="159.033203" xlink:href="#DejaVuSans-53"/>
      </g>
     </g>
    </g>
    <g id="ytick_3">
     <g id="line2d_19">
      <path clip-path="url(#p529aa1fe10)" d="M 52.079375 175.492819 
L 665.879375 175.492819 
" style="fill:none;stroke:#ffffff;stroke-linecap:square;stroke-width:0.8;"/>
     </g>
     <g id="line2d_20">
      <g>
       <use style="fill:#555555;stroke:#555555;stroke-width:0.8;" x="52.079375" xlink:href="#mb53bb9fceb" y="175.492819"/>
      </g>
     </g>
     <g id="text_11">
      <!-- 0.50 -->
      <g style="fill:#555555;" transform="translate(22.81375 179.292038)scale(0.1 -0.1)">
       <use xlink:href="#DejaVuSans-48"/>
       <use x="63.623047" xlink:href="#DejaVuSans-46"/>
       <use x="95.410156" xlink:href="#DejaVuSans-53"/>
       <use x="159.033203" xlink:href="#DejaVuSans-48"/>
      </g>
     </g>
    </g>
    <g id="ytick_4">
     <g id="line2d_21">
      <path clip-path="url(#p529aa1fe10)" d="M 52.079375 147.566585 
L 665.879375 147.566585 
" style="fill:none;stroke:#ffffff;stroke-linecap:square;stroke-width:0.8;"/>
     </g>
     <g id="line2d_22">
      <g>
       <use style="fill:#555555;stroke:#555555;stroke-width:0.8;" x="52.079375" xlink:href="#mb53bb9fceb" y="147.566585"/>
      </g>
     </g>
     <g id="text_12">
      <!-- 0.75 -->
      <g style="fill:#555555;" transform="translate(22.81375 151.365804)scale(0.1 -0.1)">
       <use xlink:href="#DejaVuSans-48"/>
       <use x="63.623047" xlink:href="#DejaVuSans-46"/>
       <use x="95.410156" xlink:href="#DejaVuSans-55"/>
       <use x="159.033203" xlink:href="#DejaVuSans-53"/>
      </g>
     </g>
    </g>
    <g id="ytick_5">
     <g id="line2d_23">
      <path clip-path="url(#p529aa1fe10)" d="M 52.079375 119.640352 
L 665.879375 119.640352 
" style="fill:none;stroke:#ffffff;stroke-linecap:square;stroke-width:0.8;"/>
     </g>
     <g id="line2d_24">
      <g>
       <use style="fill:#555555;stroke:#555555;stroke-width:0.8;" x="52.079375" xlink:href="#mb53bb9fceb" y="119.640352"/>
      </g>
     </g>
     <g id="text_13">
      <!-- 1.00 -->
      <g style="fill:#555555;" transform="translate(22.81375 123.439571)scale(0.1 -0.1)">
       <use xlink:href="#DejaVuSans-49"/>
       <use x="63.623047" xlink:href="#DejaVuSans-46"/>
       <use x="95.410156" xlink:href="#DejaVuSans-48"/>
       <use x="159.033203" xlink:href="#DejaVuSans-48"/>
      </g>
     </g>
    </g>
    <g id="ytick_6">
     <g id="line2d_25">
      <path clip-path="url(#p529aa1fe10)" d="M 52.079375 91.714119 
L 665.879375 91.714119 
" style="fill:none;stroke:#ffffff;stroke-linecap:square;stroke-width:0.8;"/>
     </g>
     <g id="line2d_26">
      <g>
       <use style="fill:#555555;stroke:#555555;stroke-width:0.8;" x="52.079375" xlink:href="#mb53bb9fceb" y="91.714119"/>
      </g>
     </g>
     <g id="text_14">
      <!-- 1.25 -->
      <g style="fill:#555555;" transform="translate(22.81375 95.513337)scale(0.1 -0.1)">
       <use xlink:href="#DejaVuSans-49"/>
       <use x="63.623047" xlink:href="#DejaVuSans-46"/>
       <use x="95.410156" xlink:href="#DejaVuSans-50"/>
       <use x="159.033203" xlink:href="#DejaVuSans-53"/>
      </g>
     </g>
    </g>
    <g id="ytick_7">
     <g id="line2d_27">
      <path clip-path="url(#p529aa1fe10)" d="M 52.079375 63.787885 
L 665.879375 63.787885 
" style="fill:none;stroke:#ffffff;stroke-linecap:square;stroke-width:0.8;"/>
     </g>
     <g id="line2d_28">
      <g>
       <use style="fill:#555555;stroke:#555555;stroke-width:0.8;" x="52.079375" xlink:href="#mb53bb9fceb" y="63.787885"/>
      </g>
     </g>
     <g id="text_15">
      <!-- 1.50 -->
      <g style="fill:#555555;" transform="translate(22.81375 67.587104)scale(0.1 -0.1)">
       <use xlink:href="#DejaVuSans-49"/>
       <use x="63.623047" xlink:href="#DejaVuSans-46"/>
       <use x="95.410156" xlink:href="#DejaVuSans-53"/>
       <use x="159.033203" xlink:href="#DejaVuSans-48"/>
      </g>
     </g>
    </g>
    <g id="ytick_8">
     <g id="line2d_29">
      <path clip-path="url(#p529aa1fe10)" d="M 52.079375 35.861652 
L 665.879375 35.861652 
" style="fill:none;stroke:#ffffff;stroke-linecap:square;stroke-width:0.8;"/>
     </g>
     <g id="line2d_30">
      <g>
       <use style="fill:#555555;stroke:#555555;stroke-width:0.8;" x="52.079375" xlink:href="#mb53bb9fceb" y="35.861652"/>
      </g>
     </g>
     <g id="text_16">
      <!-- 1.75 -->
      <g style="fill:#555555;" transform="translate(22.81375 39.660871)scale(0.1 -0.1)">
       <use xlink:href="#DejaVuSans-49"/>
       <use x="63.623047" xlink:href="#DejaVuSans-46"/>
       <use x="95.410156" xlink:href="#DejaVuSans-55"/>
       <use x="159.033203" xlink:href="#DejaVuSans-53"/>
      </g>
     </g>
    </g>
    <g id="text_17">
     <!-- Revenue (AUD) -->
     <g style="fill:#555555;" transform="translate(16.318125 178.697063)rotate(-90)scale(0.12 -0.12)">
      <defs>
       <path d="M 44.390625 34.1875 
Q 47.5625 33.109375 50.5625 29.59375 
Q 53.5625 26.078125 56.59375 19.921875 
L 66.609375 0 
L 56 0 
L 46.6875 18.703125 
Q 43.0625 26.03125 39.671875 28.421875 
Q 36.28125 30.8125 30.421875 30.8125 
L 19.671875 30.8125 
L 19.671875 0 
L 9.8125 0 
L 9.8125 72.90625 
L 32.078125 72.90625 
Q 44.578125 72.90625 50.734375 67.671875 
Q 56.890625 62.453125 56.890625 51.90625 
Q 56.890625 45.015625 53.6875 40.46875 
Q 50.484375 35.9375 44.390625 34.1875 
z
M 19.671875 64.796875 
L 19.671875 38.921875 
L 32.078125 38.921875 
Q 39.203125 38.921875 42.84375 42.21875 
Q 46.484375 45.515625 46.484375 51.90625 
Q 46.484375 58.296875 42.84375 61.546875 
Q 39.203125 64.796875 32.078125 64.796875 
z
" id="DejaVuSans-82"/>
       <path d="M 2.984375 54.6875 
L 12.5 54.6875 
L 29.59375 8.796875 
L 46.6875 54.6875 
L 56.203125 54.6875 
L 35.6875 0 
L 23.484375 0 
z
" id="DejaVuSans-118"/>
       <path d="M 54.890625 33.015625 
L 54.890625 0 
L 45.90625 0 
L 45.90625 32.71875 
Q 45.90625 40.484375 42.875 44.328125 
Q 39.84375 48.1875 33.796875 48.1875 
Q 26.515625 48.1875 22.3125 43.546875 
Q 18.109375 38.921875 18.109375 30.90625 
L 18.109375 0 
L 9.078125 0 
L 9.078125 54.6875 
L 18.109375 54.6875 
L 18.109375 46.1875 
Q 21.34375 51.125 25.703125 53.5625 
Q 30.078125 56 35.796875 56 
Q 45.21875 56 50.046875 50.171875 
Q 54.890625 44.34375 54.890625 33.015625 
z
" id="DejaVuSans-110"/>
       <path d="M 8.5 21.578125 
L 8.5 54.6875 
L 17.484375 54.6875 
L 17.484375 21.921875 
Q 17.484375 14.15625 20.5 10.265625 
Q 23.53125 6.390625 29.59375 6.390625 
Q 36.859375 6.390625 41.078125 11.03125 
Q 45.3125 15.671875 45.3125 23.6875 
L 45.3125 54.6875 
L 54.296875 54.6875 
L 54.296875 0 
L 45.3125 0 
L 45.3125 8.40625 
Q 42.046875 3.421875 37.71875 1 
Q 33.40625 -1.421875 27.6875 -1.421875 
Q 18.265625 -1.421875 13.375 4.4375 
Q 8.5 10.296875 8.5 21.578125 
z
M 31.109375 56 
z
" id="DejaVuSans-117"/>
       <path id="DejaVuSans-32"/>
       <path d="M 31 75.875 
Q 24.46875 64.65625 21.28125 53.65625 
Q 18.109375 42.671875 18.109375 31.390625 
Q 18.109375 20.125 21.3125 9.0625 
Q 24.515625 -2 31 -13.1875 
L 23.1875 -13.1875 
Q 15.875 -1.703125 12.234375 9.375 
Q 8.59375 20.453125 8.59375 31.390625 
Q 8.59375 42.28125 12.203125 53.3125 
Q 15.828125 64.359375 23.1875 75.875 
z
" id="DejaVuSans-40"/>
       <path d="M 34.1875 63.1875 
L 20.796875 26.90625 
L 47.609375 26.90625 
z
M 28.609375 72.90625 
L 39.796875 72.90625 
L 67.578125 0 
L 57.328125 0 
L 50.6875 18.703125 
L 17.828125 18.703125 
L 11.1875 0 
L 0.78125 0 
z
" id="DejaVuSans-65"/>
       <path d="M 8.6875 72.90625 
L 18.609375 72.90625 
L 18.609375 28.609375 
Q 18.609375 16.890625 22.84375 11.734375 
Q 27.09375 6.59375 36.625 6.59375 
Q 46.09375 6.59375 50.34375 11.734375 
Q 54.59375 16.890625 54.59375 28.609375 
L 54.59375 72.90625 
L 64.5 72.90625 
L 64.5 27.390625 
Q 64.5 13.140625 57.4375 5.859375 
Q 50.390625 -1.421875 36.625 -1.421875 
Q 22.796875 -1.421875 15.734375 5.859375 
Q 8.6875 13.140625 8.6875 27.390625 
z
" id="DejaVuSans-85"/>
       <path d="M 8.015625 75.875 
L 15.828125 75.875 
Q 23.140625 64.359375 26.78125 53.3125 
Q 30.421875 42.28125 30.421875 31.390625 
Q 30.421875 20.453125 26.78125 9.375 
Q 23.140625 -1.703125 15.828125 -13.1875 
L 8.015625 -13.1875 
Q 14.5 -2 17.703125 9.0625 
Q 20.90625 20.125 20.90625 31.390625 
Q 20.90625 42.671875 17.703125 53.65625 
Q 14.5 64.65625 8.015625 75.875 
z
" id="DejaVuSans-41"/>
      </defs>
      <use xlink:href="#DejaVuSans-82"/>
      <use x="64.982422" xlink:href="#DejaVuSans-101"/>
      <use x="126.505859" xlink:href="#DejaVuSans-118"/>
      <use x="185.685547" xlink:href="#DejaVuSans-101"/>
      <use x="247.208984" xlink:href="#DejaVuSans-110"/>
      <use x="310.587891" xlink:href="#DejaVuSans-117"/>
      <use x="373.966797" xlink:href="#DejaVuSans-101"/>
      <use x="435.490234" xlink:href="#DejaVuSans-32"/>
      <use x="467.277344" xlink:href="#DejaVuSans-40"/>
      <use x="506.291016" xlink:href="#DejaVuSans-65"/>
      <use x="574.699219" xlink:href="#DejaVuSans-85"/>
      <use x="647.892578" xlink:href="#DejaVuSans-68"/>
      <use x="724.894531" xlink:href="#DejaVuSans-41"/>
     </g>
    </g>
    <g id="text_18">
     <!-- 1e7 -->
     <g style="fill:#555555;" transform="translate(52.079375 21.14175)scale(0.1 -0.1)">
      <use xlink:href="#DejaVuSans-49"/>
      <use x="63.623047" xlink:href="#DejaVuSans-101"/>
      <use x="125.146484" xlink:href="#DejaVuSans-55"/>
     </g>
    </g>
   </g>
   <g id="line2d_31">
    <path clip-path="url(#p529aa1fe10)" d="M 79.979375 231.191952 
L 83.079375 231.088371 
L 86.179375 230.475974 
L 92.379375 229.520488 
L 98.579375 228.000517 
L 101.679375 227.626108 
L 104.779375 227.635425 
L 107.879375 227.172882 
L 114.079375 226.741339 
L 117.179375 226.361897 
L 123.379375 225.242349 
L 129.579375 223.925001 
L 132.679375 223.695845 
L 135.779375 223.29689 
L 145.079375 222.817854 
L 148.179375 222.477299 
L 151.279375 221.725951 
L 154.379375 221.421535 
L 157.479375 220.837513 
L 160.579375 220.062469 
L 163.679375 219.943408 
L 166.779375 219.648269 
L 169.879375 218.980195 
L 172.979375 218.676096 
L 182.279375 217.341753 
L 185.379375 217.270739 
L 188.479375 216.770298 
L 194.679375 215.532342 
L 200.879375 214.722485 
L 203.979375 214.444257 
L 207.079375 214.035999 
L 210.179375 213.833629 
L 216.379375 212.720652 
L 219.479375 212.286158 
L 225.679375 211.787347 
L 228.779375 211.203413 
L 231.879375 210.459725 
L 234.979375 210.430703 
L 238.079375 210.248265 
L 241.179375 209.694313 
L 244.279375 209.30694 
L 250.479375 208.945778 
L 253.579375 208.511071 
L 256.679375 208.626894 
L 262.879375 207.811124 
L 265.979375 207.410951 
L 275.279375 206.717377 
L 278.379375 206.284268 
L 281.479375 206.011812 
L 284.579375 205.938929 
L 287.679375 205.534467 
L 290.779375 205.342078 
L 296.979375 204.602002 
L 300.079375 204.488534 
L 303.179375 203.99387 
L 309.379375 203.479287 
L 312.479375 203.439507 
L 315.579375 203.165622 
L 318.679375 203.062944 
L 321.779375 202.729735 
L 324.879375 202.52218 
L 327.979375 201.992742 
L 331.079375 201.223642 
L 334.179375 200.932046 
L 337.279375 199.956044 
L 340.379375 199.694668 
L 349.679375 198.220699 
L 352.779375 197.434082 
L 358.979375 196.83447 
L 362.079375 196.366616 
L 365.179375 195.6955 
L 371.379375 195.091871 
L 374.479375 194.811048 
L 377.579375 194.062016 
L 383.779375 193.266677 
L 389.979375 191.805286 
L 393.079375 190.899506 
L 396.179375 190.221134 
L 399.279375 189.179298 
L 402.379375 188.469318 
L 405.479375 188.11658 
L 408.579375 186.943557 
L 414.779375 183.734225 
L 417.879375 182.926249 
L 420.979375 179.945186 
L 424.079375 178.757794 
L 427.179375 176.070247 
L 430.279375 175.259421 
L 433.379375 174.64076 
L 445.779375 166.514357 
L 455.079375 164.758993 
L 458.179375 164.4324 
L 461.279375 163.4733 
L 464.379375 163.028677 
L 467.479375 161.671662 
L 470.579375 160.13208 
L 473.679375 159.819856 
L 476.779375 159.059861 
L 482.979375 156.426692 
L 486.079375 149.568489 
L 492.279375 148.239528 
L 495.379375 147.126861 
L 498.479375 146.808777 
L 501.579375 133.673912 
L 504.679375 106.902603 
L 507.779375 105.538571 
L 510.879375 103.67796 
L 513.979375 101.65703 
L 517.079375 100.393506 
L 520.179375 99.36652 
L 523.279375 98.535479 
L 526.379375 97.507217 
L 529.479375 95.710655 
L 532.579375 94.571405 
L 538.779375 91.498963 
L 541.879375 84.480239 
L 544.979375 83.128412 
L 548.079375 81.14549 
L 551.179375 78.130191 
L 554.279375 75.539085 
L 557.379375 73.696037 
L 560.479375 72.648927 
L 563.579375 70.928321 
L 566.679375 69.792086 
L 569.779375 68.030109 
L 572.879375 67.273564 
L 575.979375 64.998743 
L 579.079375 62.179485 
L 582.179375 60.896656 
L 585.279375 60.501477 
L 588.379375 58.970827 
L 591.479375 56.817748 
L 594.579375 55.402656 
L 597.679375 52.976579 
L 600.779375 52.004107 
L 603.879375 51.632331 
L 606.979375 50.259807 
L 610.079375 42.557077 
L 613.179375 41.436588 
L 616.279375 40.772991 
L 619.379375 39.60193 
L 622.479375 38.054681 
L 628.679375 36.890406 
L 631.779375 35.519226 
L 634.879375 35.021271 
L 637.979375 34.025386 
L 637.979375 34.025386 
" style="fill:none;stroke:#e24a33;stroke-linecap:square;stroke-width:1.5;"/>
   </g>
   <g id="line2d_32">
    <path clip-path="url(#p529aa1fe10)" d="M 79.979375 231.15809 
L 83.079375 231.237566 
L 86.179375 230.905492 
L 89.279375 230.775112 
L 95.479375 230.020463 
L 98.579375 229.460109 
L 101.679375 229.164596 
L 104.779375 229.046483 
L 110.979375 228.669589 
L 114.079375 228.771124 
L 120.279375 228.483483 
L 129.579375 227.10179 
L 132.679375 227.047751 
L 138.879375 226.754537 
L 151.279375 226.190913 
L 154.379375 225.973884 
L 157.479375 225.951241 
L 160.579375 225.302748 
L 169.879375 224.747515 
L 182.279375 223.674848 
L 185.379375 223.70079 
L 207.079375 221.882799 
L 210.179375 221.727677 
L 216.379375 220.827211 
L 219.479375 220.522809 
L 225.679375 220.310797 
L 228.779375 219.904176 
L 231.879375 219.345839 
L 238.079375 219.38407 
L 241.179375 218.966798 
L 253.579375 218.083142 
L 259.779375 217.900105 
L 269.079375 217.099798 
L 272.179375 216.882707 
L 275.279375 216.811517 
L 278.379375 216.513924 
L 281.479375 216.329453 
L 284.579375 216.375383 
L 287.679375 215.982093 
L 293.879375 215.742971 
L 296.979375 215.403176 
L 300.079375 215.350693 
L 303.179375 215.013128 
L 315.579375 214.488557 
L 318.679375 214.449826 
L 321.779375 214.127219 
L 324.879375 214.102295 
L 327.979375 213.963367 
L 331.079375 213.634103 
L 334.179375 213.627954 
L 337.279375 212.786702 
L 340.379375 212.688897 
L 349.679375 211.659307 
L 352.779375 210.997987 
L 358.979375 210.493443 
L 362.079375 210.134108 
L 365.179375 209.6266 
L 371.379375 209.187301 
L 374.479375 208.979154 
L 377.579375 208.438806 
L 383.779375 207.971421 
L 389.979375 206.928669 
L 393.079375 206.181852 
L 396.179375 205.728502 
L 399.279375 204.812537 
L 402.379375 204.213365 
L 405.479375 203.931517 
L 408.579375 203.140247 
L 411.679375 202.606562 
L 414.779375 201.960009 
L 417.879375 201.051235 
L 420.979375 199.110058 
L 424.079375 198.24708 
L 427.179375 197.220122 
L 430.279375 196.938766 
L 433.379375 196.366924 
L 445.779375 191.082967 
L 455.079375 189.988818 
L 458.179375 189.917298 
L 461.279375 189.324612 
L 464.379375 188.994392 
L 470.579375 186.754379 
L 476.779375 185.887979 
L 482.979375 183.781957 
L 486.079375 177.955986 
L 489.179375 177.623447 
L 492.279375 177.014933 
L 495.379375 176.250562 
L 498.479375 176.073401 
L 501.579375 164.659173 
L 504.679375 143.356882 
L 507.779375 142.38871 
L 510.879375 141.786935 
L 523.279375 138.772996 
L 526.379375 138.371702 
L 529.479375 137.050114 
L 532.579375 136.420408 
L 535.679375 136.284294 
L 538.779375 135.502051 
L 541.879375 129.225439 
L 544.979375 128.408856 
L 548.079375 128.294131 
L 551.179375 127.147474 
L 554.279375 125.252712 
L 557.379375 124.341378 
L 560.479375 123.586553 
L 563.579375 122.277049 
L 566.679375 121.226707 
L 569.779375 119.914672 
L 572.879375 119.588629 
L 575.979375 117.829082 
L 579.079375 117.117843 
L 582.179375 116.132691 
L 588.379375 116.218526 
L 594.579375 115.753043 
L 600.779375 114.621236 
L 603.879375 114.159151 
L 606.979375 113.50596 
L 610.079375 110.441159 
L 613.179375 109.750523 
L 616.279375 109.210676 
L 619.379375 109.219422 
L 622.479375 109.081346 
L 628.679375 108.246674 
L 631.779375 107.712136 
L 634.879375 107.430127 
L 637.979375 106.631754 
L 637.979375 106.631754 
" style="fill:none;stroke:#348abd;stroke-linecap:square;stroke-width:1.5;"/>
   </g>
   <g id="line2d_33">
    <path clip-path="url(#p529aa1fe10)" d="M 79.979375 231.300405 
L 83.079375 231.42186 
L 86.179375 231.698114 
L 92.379375 231.214211 
L 95.479375 231.292409 
L 98.579375 230.843683 
L 101.679375 230.60598 
L 104.779375 230.498195 
L 107.879375 230.238882 
L 110.979375 230.145231 
L 114.079375 230.634068 
L 120.279375 230.905455 
L 129.579375 230.146368 
L 132.679375 229.988075 
L 135.779375 230.195625 
L 141.979375 229.869241 
L 151.279375 229.552455 
L 154.379375 229.602769 
L 157.479375 230.002804 
L 163.679375 229.819368 
L 166.779375 229.647663 
L 169.879375 229.8853 
L 176.079375 229.652994 
L 182.279375 229.64795 
L 185.379375 229.56626 
L 194.679375 228.799242 
L 197.779375 228.653862 
L 200.879375 228.35979 
L 203.979375 228.215327 
L 207.079375 227.9354 
L 210.179375 228.13031 
L 213.279375 227.677157 
L 219.479375 227.157765 
L 225.679375 227.058203 
L 231.879375 226.270525 
L 234.979375 226.521408 
L 238.079375 226.535303 
L 244.279375 225.917282 
L 253.579375 225.391739 
L 259.779375 225.354926 
L 265.979375 224.773413 
L 281.479375 223.907661 
L 284.579375 223.944744 
L 290.779375 223.806217 
L 293.879375 223.524086 
L 296.979375 223.358061 
L 300.079375 223.377573 
L 306.279375 223.059729 
L 315.579375 222.731542 
L 318.679375 222.80329 
L 321.779375 222.550425 
L 324.879375 222.638483 
L 331.079375 222.041108 
L 334.179375 222.094576 
L 337.279375 221.533985 
L 346.579375 220.777791 
L 349.679375 220.502771 
L 352.779375 219.985235 
L 362.079375 219.309849 
L 365.179375 218.83668 
L 368.279375 218.765089 
L 374.479375 218.23504 
L 377.579375 217.674984 
L 380.679375 217.578502 
L 383.779375 217.343425 
L 386.879375 216.730756 
L 389.979375 216.250597 
L 393.079375 215.538153 
L 396.179375 215.074753 
L 399.279375 214.318841 
L 402.379375 213.766504 
L 405.479375 213.410436 
L 408.579375 212.820621 
L 411.679375 211.799122 
L 414.779375 211.198012 
L 417.879375 210.289033 
L 420.979375 209.139561 
L 424.079375 208.580427 
L 427.179375 208.399045 
L 430.279375 207.859935 
L 433.379375 207.548992 
L 439.579375 205.230555 
L 442.679375 204.544144 
L 445.779375 202.749589 
L 451.979375 202.017648 
L 455.079375 201.732962 
L 458.179375 201.627013 
L 461.279375 201.042829 
L 464.379375 200.757906 
L 467.479375 199.675723 
L 470.579375 198.95859 
L 476.779375 197.926123 
L 482.979375 195.821369 
L 486.079375 189.604606 
L 489.179375 189.301916 
L 492.279375 188.742351 
L 495.379375 188.016308 
L 498.479375 187.879618 
L 501.579375 176.631941 
L 504.679375 155.796388 
L 507.779375 154.839796 
L 510.879375 154.293364 
L 513.979375 153.968278 
L 517.079375 153.110122 
L 520.179375 152.41665 
L 523.279375 151.957931 
L 526.379375 151.699003 
L 529.479375 150.109618 
L 538.779375 149.069132 
L 541.879375 142.714212 
L 544.979375 141.896943 
L 548.079375 141.390517 
L 551.179375 141.456613 
L 554.279375 139.754624 
L 557.379375 138.883612 
L 560.479375 138.141204 
L 563.579375 136.63858 
L 566.679375 135.912017 
L 569.779375 134.754871 
L 572.879375 134.490421 
L 575.979375 133.27811 
L 579.079375 133.248088 
L 582.179375 132.824242 
L 585.279375 132.523979 
L 588.379375 132.821188 
L 591.479375 132.713659 
L 594.579375 132.382311 
L 597.679375 131.813791 
L 600.779375 131.502256 
L 603.879375 130.984666 
L 606.979375 130.235363 
L 610.079375 127.204043 
L 613.179375 126.641925 
L 616.279375 126.23571 
L 619.379375 126.34068 
L 622.479375 125.955516 
L 625.579375 125.695989 
L 628.679375 125.762477 
L 631.779375 124.912395 
L 634.879375 124.626098 
L 637.979375 123.848322 
L 637.979375 123.848322 
" style="fill:none;stroke:#988ed5;stroke-linecap:square;stroke-width:1.5;"/>
   </g>
   <g id="line2d_34">
    <path clip-path="url(#p529aa1fe10)" d="M 79.979375 231.389948 
L 83.079375 231.346963 
L 86.179375 231.478131 
L 92.379375 231.180781 
L 95.479375 231.255532 
L 98.579375 230.773756 
L 101.679375 230.540682 
L 104.779375 230.56236 
L 107.879375 230.29219 
L 110.979375 230.260457 
L 114.079375 230.673883 
L 117.179375 230.588065 
L 120.279375 230.759774 
L 129.579375 230.965223 
L 132.679375 230.796762 
L 138.879375 230.774527 
L 145.079375 230.563421 
L 151.279375 230.415053 
L 154.379375 230.479773 
L 157.479375 230.757449 
L 163.679375 230.543455 
L 166.779375 230.4016 
L 169.879375 230.65553 
L 182.279375 230.881134 
L 203.979375 229.924105 
L 207.079375 229.608605 
L 210.179375 229.843366 
L 216.379375 229.207908 
L 222.579375 229.028901 
L 225.679375 228.994121 
L 228.779375 228.775567 
L 231.879375 228.421217 
L 234.979375 228.664915 
L 244.279375 228.526573 
L 247.379375 228.355763 
L 250.479375 228.066001 
L 253.579375 227.9109 
L 256.679375 228.003671 
L 259.779375 227.941162 
L 272.179375 227.0812 
L 278.379375 226.905038 
L 281.479375 226.628023 
L 290.779375 226.461753 
L 293.879375 226.292571 
L 296.979375 225.957679 
L 309.379375 225.61621 
L 321.779375 225.163295 
L 324.879375 225.209789 
L 327.979375 224.890085 
L 337.279375 224.654818 
L 340.379375 224.317306 
L 343.479375 224.209935 
L 349.679375 223.58782 
L 352.779375 222.994148 
L 355.879375 222.842312 
L 362.079375 222.243185 
L 365.179375 221.62958 
L 368.279375 221.734674 
L 371.379375 221.340449 
L 374.479375 221.124824 
L 380.679375 220.476185 
L 383.779375 220.311512 
L 393.079375 218.935366 
L 402.379375 217.279478 
L 405.479375 217.087282 
L 408.579375 216.780375 
L 411.679375 215.972445 
L 414.779375 215.374378 
L 420.979375 213.623259 
L 424.079375 212.952207 
L 427.179375 212.836776 
L 430.279375 212.25307 
L 433.379375 211.944773 
L 436.479375 210.68981 
L 439.579375 208.970949 
L 442.679375 208.37292 
L 445.779375 206.51301 
L 448.879375 206.264592 
L 451.979375 205.887394 
L 458.179375 205.386807 
L 461.279375 204.705806 
L 464.379375 204.499264 
L 470.579375 202.941593 
L 473.679375 202.237665 
L 476.779375 201.998909 
L 479.879375 201.352763 
L 482.979375 200.300757 
L 486.079375 194.596578 
L 492.279375 193.40059 
L 495.379375 192.683456 
L 498.479375 192.548519 
L 501.579375 181.756505 
L 504.679375 160.196971 
L 507.779375 159.380198 
L 510.879375 159.117838 
L 513.979375 158.731257 
L 517.079375 157.881504 
L 520.179375 157.18039 
L 523.279375 156.747576 
L 526.379375 156.525561 
L 529.479375 155.017321 
L 532.579375 154.565067 
L 535.679375 154.400274 
L 538.779375 153.837229 
L 541.879375 147.475821 
L 544.979375 146.921515 
L 548.079375 146.51667 
L 551.179375 146.566677 
L 554.279375 145.022412 
L 557.379375 144.117012 
L 560.479375 143.417579 
L 563.579375 142.226613 
L 566.679375 141.35583 
L 569.779375 140.33484 
L 572.879375 140.139391 
L 575.979375 139.091888 
L 579.079375 139.301506 
L 585.279375 138.448744 
L 588.379375 138.646273 
L 591.479375 138.557261 
L 594.579375 137.94933 
L 603.879375 136.537816 
L 606.979375 136.551931 
L 610.079375 132.998305 
L 613.179375 132.425617 
L 616.279375 132.013884 
L 619.379375 132.864363 
L 622.479375 132.384204 
L 625.579375 132.100471 
L 628.679375 132.56867 
L 631.779375 131.405236 
L 634.879375 131.114059 
L 637.979375 130.375617 
L 637.979375 130.375617 
" style="fill:none;stroke:#777777;stroke-linecap:square;stroke-width:1.5;"/>
   </g>
   <g id="patch_3">
    <path d="M 52.079375 241.58175 
L 52.079375 24.14175 
" style="fill:none;stroke:#ffffff;stroke-linecap:square;stroke-linejoin:miter;"/>
   </g>
   <g id="patch_4">
    <path d="M 665.879375 241.58175 
L 665.879375 24.14175 
" style="fill:none;stroke:#ffffff;stroke-linecap:square;stroke-linejoin:miter;"/>
   </g>
   <g id="patch_5">
    <path d="M 52.079375 241.58175 
L 665.879375 241.58175 
" style="fill:none;stroke:#ffffff;stroke-linecap:square;stroke-linejoin:miter;"/>
   </g>
   <g id="patch_6">
    <path d="M 52.079375 24.14175 
L 665.879375 24.14175 
" style="fill:none;stroke:#ffffff;stroke-linecap:square;stroke-linejoin:miter;"/>
   </g>
   <g id="text_19">
    <!-- Cumulative Revenue of CV Period -->
    <g transform="translate(238.035125 18.14175)scale(0.144 -0.144)">
     <defs>
      <path d="M 64.40625 67.28125 
L 64.40625 56.890625 
Q 59.421875 61.53125 53.78125 63.8125 
Q 48.140625 66.109375 41.796875 66.109375 
Q 29.296875 66.109375 22.65625 58.46875 
Q 16.015625 50.828125 16.015625 36.375 
Q 16.015625 21.96875 22.65625 14.328125 
Q 29.296875 6.6875 41.796875 6.6875 
Q 48.140625 6.6875 53.78125 8.984375 
Q 59.421875 11.28125 64.40625 15.921875 
L 64.40625 5.609375 
Q 59.234375 2.09375 53.4375 0.328125 
Q 47.65625 -1.421875 41.21875 -1.421875 
Q 24.65625 -1.421875 15.125 8.703125 
Q 5.609375 18.84375 5.609375 36.375 
Q 5.609375 53.953125 15.125 64.078125 
Q 24.65625 74.21875 41.21875 74.21875 
Q 47.75 74.21875 53.53125 72.484375 
Q 59.328125 70.75 64.40625 67.28125 
z
" id="DejaVuSans-67"/>
      <path d="M 52 44.1875 
Q 55.375 50.25 60.0625 53.125 
Q 64.75 56 71.09375 56 
Q 79.640625 56 84.28125 50.015625 
Q 88.921875 44.046875 88.921875 33.015625 
L 88.921875 0 
L 79.890625 0 
L 79.890625 32.71875 
Q 79.890625 40.578125 77.09375 44.375 
Q 74.3125 48.1875 68.609375 48.1875 
Q 61.625 48.1875 57.5625 43.546875 
Q 53.515625 38.921875 53.515625 30.90625 
L 53.515625 0 
L 44.484375 0 
L 44.484375 32.71875 
Q 44.484375 40.625 41.703125 44.40625 
Q 38.921875 48.1875 33.109375 48.1875 
Q 26.21875 48.1875 22.15625 43.53125 
Q 18.109375 38.875 18.109375 30.90625 
L 18.109375 0 
L 9.078125 0 
L 9.078125 54.6875 
L 18.109375 54.6875 
L 18.109375 46.1875 
Q 21.1875 51.21875 25.484375 53.609375 
Q 29.78125 56 35.6875 56 
Q 41.65625 56 45.828125 52.96875 
Q 50 49.953125 52 44.1875 
z
" id="DejaVuSans-109"/>
      <path d="M 9.421875 75.984375 
L 18.40625 75.984375 
L 18.40625 0 
L 9.421875 0 
z
" id="DejaVuSans-108"/>
      <path d="M 9.421875 54.6875 
L 18.40625 54.6875 
L 18.40625 0 
L 9.421875 0 
z
M 9.421875 75.984375 
L 18.40625 75.984375 
L 18.40625 64.59375 
L 9.421875 64.59375 
z
" id="DejaVuSans-105"/>
      <path d="M 30.609375 48.390625 
Q 23.390625 48.390625 19.1875 42.75 
Q 14.984375 37.109375 14.984375 27.296875 
Q 14.984375 17.484375 19.15625 11.84375 
Q 23.34375 6.203125 30.609375 6.203125 
Q 37.796875 6.203125 41.984375 11.859375 
Q 46.1875 17.53125 46.1875 27.296875 
Q 46.1875 37.015625 41.984375 42.703125 
Q 37.796875 48.390625 30.609375 48.390625 
z
M 30.609375 56 
Q 42.328125 56 49.015625 48.375 
Q 55.71875 40.765625 55.71875 27.296875 
Q 55.71875 13.875 49.015625 6.21875 
Q 42.328125 -1.421875 30.609375 -1.421875 
Q 18.84375 -1.421875 12.171875 6.21875 
Q 5.515625 13.875 5.515625 27.296875 
Q 5.515625 40.765625 12.171875 48.375 
Q 18.84375 56 30.609375 56 
z
" id="DejaVuSans-111"/>
      <path d="M 37.109375 75.984375 
L 37.109375 68.5 
L 28.515625 68.5 
Q 23.6875 68.5 21.796875 66.546875 
Q 19.921875 64.59375 19.921875 59.515625 
L 19.921875 54.6875 
L 34.71875 54.6875 
L 34.71875 47.703125 
L 19.921875 47.703125 
L 19.921875 0 
L 10.890625 0 
L 10.890625 47.703125 
L 2.296875 47.703125 
L 2.296875 54.6875 
L 10.890625 54.6875 
L 10.890625 58.5 
Q 10.890625 67.625 15.140625 71.796875 
Q 19.390625 75.984375 28.609375 75.984375 
z
" id="DejaVuSans-102"/>
      <path d="M 28.609375 0 
L 0.78125 72.90625 
L 11.078125 72.90625 
L 34.1875 11.53125 
L 57.328125 72.90625 
L 67.578125 72.90625 
L 39.796875 0 
z
" id="DejaVuSans-86"/>
      <path d="M 19.671875 64.796875 
L 19.671875 37.40625 
L 32.078125 37.40625 
Q 38.96875 37.40625 42.71875 40.96875 
Q 46.484375 44.53125 46.484375 51.125 
Q 46.484375 57.671875 42.71875 61.234375 
Q 38.96875 64.796875 32.078125 64.796875 
z
M 9.8125 72.90625 
L 32.078125 72.90625 
Q 44.34375 72.90625 50.609375 67.359375 
Q 56.890625 61.8125 56.890625 51.125 
Q 56.890625 40.328125 50.609375 34.8125 
Q 44.34375 29.296875 32.078125 29.296875 
L 19.671875 29.296875 
L 19.671875 0 
L 9.8125 0 
z
" id="DejaVuSans-80"/>
      <path d="M 41.109375 46.296875 
Q 39.59375 47.171875 37.8125 47.578125 
Q 36.03125 48 33.890625 48 
Q 26.265625 48 22.1875 43.046875 
Q 18.109375 38.09375 18.109375 28.8125 
L 18.109375 0 
L 9.078125 0 
L 9.078125 54.6875 
L 18.109375 54.6875 
L 18.109375 46.1875 
Q 20.953125 51.171875 25.484375 53.578125 
Q 30.03125 56 36.53125 56 
Q 37.453125 56 38.578125 55.875 
Q 39.703125 55.765625 41.0625 55.515625 
z
" id="DejaVuSans-114"/>
      <path d="M 45.40625 46.390625 
L 45.40625 75.984375 
L 54.390625 75.984375 
L 54.390625 0 
L 45.40625 0 
L 45.40625 8.203125 
Q 42.578125 3.328125 38.25 0.953125 
Q 33.9375 -1.421875 27.875 -1.421875 
Q 17.96875 -1.421875 11.734375 6.484375 
Q 5.515625 14.40625 5.515625 27.296875 
Q 5.515625 40.1875 11.734375 48.09375 
Q 17.96875 56 27.875 56 
Q 33.9375 56 38.25 53.625 
Q 42.578125 51.265625 45.40625 46.390625 
z
M 14.796875 27.296875 
Q 14.796875 17.390625 18.875 11.75 
Q 22.953125 6.109375 30.078125 6.109375 
Q 37.203125 6.109375 41.296875 11.75 
Q 45.40625 17.390625 45.40625 27.296875 
Q 45.40625 37.203125 41.296875 42.84375 
Q 37.203125 48.484375 30.078125 48.484375 
Q 22.953125 48.484375 18.875 42.84375 
Q 14.796875 37.203125 14.796875 27.296875 
z
" id="DejaVuSans-100"/>
     </defs>
     <use xlink:href="#DejaVuSans-67"/>
     <use x="69.824219" xlink:href="#DejaVuSans-117"/>
     <use x="133.203125" xlink:href="#DejaVuSans-109"/>
     <use x="230.615234" xlink:href="#DejaVuSans-117"/>
     <use x="293.994141" xlink:href="#DejaVuSans-108"/>
     <use x="321.777344" xlink:href="#DejaVuSans-97"/>
     <use x="383.056641" xlink:href="#DejaVuSans-116"/>
     <use x="422.265625" xlink:href="#DejaVuSans-105"/>
     <use x="450.048828" xlink:href="#DejaVuSans-118"/>
     <use x="509.228516" xlink:href="#DejaVuSans-101"/>
     <use x="570.751953" xlink:href="#DejaVuSans-32"/>
     <use x="602.539062" xlink:href="#DejaVuSans-82"/>
     <use x="667.521484" xlink:href="#DejaVuSans-101"/>
     <use x="729.044922" xlink:href="#DejaVuSans-118"/>
     <use x="788.224609" xlink:href="#DejaVuSans-101"/>
     <use x="849.748047" xlink:href="#DejaVuSans-110"/>
     <use x="913.126953" xlink:href="#DejaVuSans-117"/>
     <use x="976.505859" xlink:href="#DejaVuSans-101"/>
     <use x="1038.029297" xlink:href="#DejaVuSans-32"/>
     <use x="1069.816406" xlink:href="#DejaVuSans-111"/>
     <use x="1130.998047" xlink:href="#DejaVuSans-102"/>
     <use x="1166.203125" xlink:href="#DejaVuSans-32"/>
     <use x="1197.990234" xlink:href="#DejaVuSans-67"/>
     <use x="1267.814453" xlink:href="#DejaVuSans-86"/>
     <use x="1336.222656" xlink:href="#DejaVuSans-32"/>
     <use x="1368.009766" xlink:href="#DejaVuSans-80"/>
     <use x="1424.6875" xlink:href="#DejaVuSans-101"/>
     <use x="1486.210938" xlink:href="#DejaVuSans-114"/>
     <use x="1527.324219" xlink:href="#DejaVuSans-105"/>
     <use x="1555.107422" xlink:href="#DejaVuSans-111"/>
     <use x="1616.289062" xlink:href="#DejaVuSans-100"/>
    </g>
   </g>
   <g id="legend_1">
    <g id="patch_7">
     <path d="M 59.079375 91.132375 
L 306.443438 91.132375 
Q 308.443438 91.132375 308.443438 89.132375 
L 308.443438 31.14175 
Q 308.443438 29.14175 306.443438 29.14175 
L 59.079375 29.14175 
Q 57.079375 29.14175 57.079375 31.14175 
L 57.079375 89.132375 
Q 57.079375 91.132375 59.079375 91.132375 
z
" style="fill:#e5e5e5;opacity:0.8;stroke:#cccccc;stroke-linejoin:miter;stroke-width:0.5;"/>
    </g>
    <g id="line2d_35">
     <path d="M 61.079375 37.240187 
L 81.079375 37.240187 
" style="fill:none;stroke:#e24a33;stroke-linecap:square;stroke-width:1.5;"/>
    </g>
    <g id="line2d_36"/>
    <g id="text_20">
     <!-- Mandatory -->
     <g transform="translate(89.079375 40.740187)scale(0.1 -0.1)">
      <defs>
       <path d="M 9.8125 72.90625 
L 24.515625 72.90625 
L 43.109375 23.296875 
L 61.8125 72.90625 
L 76.515625 72.90625 
L 76.515625 0 
L 66.890625 0 
L 66.890625 64.015625 
L 48.09375 14.015625 
L 38.1875 14.015625 
L 19.390625 64.015625 
L 19.390625 0 
L 9.8125 0 
z
" id="DejaVuSans-77"/>
       <path d="M 32.171875 -5.078125 
Q 28.375 -14.84375 24.75 -17.8125 
Q 21.140625 -20.796875 15.09375 -20.796875 
L 7.90625 -20.796875 
L 7.90625 -13.28125 
L 13.1875 -13.28125 
Q 16.890625 -13.28125 18.9375 -11.515625 
Q 21 -9.765625 23.484375 -3.21875 
L 25.09375 0.875 
L 2.984375 54.6875 
L 12.5 54.6875 
L 29.59375 11.921875 
L 46.6875 54.6875 
L 56.203125 54.6875 
z
" id="DejaVuSans-121"/>
      </defs>
      <use xlink:href="#DejaVuSans-77"/>
      <use x="86.279297" xlink:href="#DejaVuSans-97"/>
      <use x="147.558594" xlink:href="#DejaVuSans-110"/>
      <use x="210.9375" xlink:href="#DejaVuSans-100"/>
      <use x="274.414062" xlink:href="#DejaVuSans-97"/>
      <use x="335.693359" xlink:href="#DejaVuSans-116"/>
      <use x="374.902344" xlink:href="#DejaVuSans-111"/>
      <use x="436.083984" xlink:href="#DejaVuSans-114"/>
      <use x="477.197266" xlink:href="#DejaVuSans-121"/>
     </g>
    </g>
    <g id="line2d_37">
     <path d="M 61.079375 51.918312 
L 81.079375 51.918312 
" style="fill:none;stroke:#348abd;stroke-linecap:square;stroke-width:1.5;"/>
    </g>
    <g id="line2d_38"/>
    <g id="text_21">
     <!-- Bonus 1 (known demand) -->
     <g transform="translate(89.079375 55.418312)scale(0.1 -0.1)">
      <defs>
       <path d="M 19.671875 34.8125 
L 19.671875 8.109375 
L 35.5 8.109375 
Q 43.453125 8.109375 47.28125 11.40625 
Q 51.125 14.703125 51.125 21.484375 
Q 51.125 28.328125 47.28125 31.5625 
Q 43.453125 34.8125 35.5 34.8125 
z
M 19.671875 64.796875 
L 19.671875 42.828125 
L 34.28125 42.828125 
Q 41.5 42.828125 45.03125 45.53125 
Q 48.578125 48.25 48.578125 53.8125 
Q 48.578125 59.328125 45.03125 62.0625 
Q 41.5 64.796875 34.28125 64.796875 
z
M 9.8125 72.90625 
L 35.015625 72.90625 
Q 46.296875 72.90625 52.390625 68.21875 
Q 58.5 63.53125 58.5 54.890625 
Q 58.5 48.1875 55.375 44.234375 
Q 52.25 40.28125 46.1875 39.3125 
Q 53.46875 37.75 57.5 32.78125 
Q 61.53125 27.828125 61.53125 20.40625 
Q 61.53125 10.640625 54.890625 5.3125 
Q 48.25 0 35.984375 0 
L 9.8125 0 
z
" id="DejaVuSans-66"/>
       <path d="M 44.28125 53.078125 
L 44.28125 44.578125 
Q 40.484375 46.53125 36.375 47.5 
Q 32.28125 48.484375 27.875 48.484375 
Q 21.1875 48.484375 17.84375 46.4375 
Q 14.5 44.390625 14.5 40.28125 
Q 14.5 37.15625 16.890625 35.375 
Q 19.28125 33.59375 26.515625 31.984375 
L 29.59375 31.296875 
Q 39.15625 29.25 43.1875 25.515625 
Q 47.21875 21.78125 47.21875 15.09375 
Q 47.21875 7.46875 41.1875 3.015625 
Q 35.15625 -1.421875 24.609375 -1.421875 
Q 20.21875 -1.421875 15.453125 -0.5625 
Q 10.6875 0.296875 5.421875 2 
L 5.421875 11.28125 
Q 10.40625 8.6875 15.234375 7.390625 
Q 20.0625 6.109375 24.8125 6.109375 
Q 31.15625 6.109375 34.5625 8.28125 
Q 37.984375 10.453125 37.984375 14.40625 
Q 37.984375 18.0625 35.515625 20.015625 
Q 33.0625 21.96875 24.703125 23.78125 
L 21.578125 24.515625 
Q 13.234375 26.265625 9.515625 29.90625 
Q 5.8125 33.546875 5.8125 39.890625 
Q 5.8125 47.609375 11.28125 51.796875 
Q 16.75 56 26.8125 56 
Q 31.78125 56 36.171875 55.265625 
Q 40.578125 54.546875 44.28125 53.078125 
z
" id="DejaVuSans-115"/>
       <path d="M 9.078125 75.984375 
L 18.109375 75.984375 
L 18.109375 31.109375 
L 44.921875 54.6875 
L 56.390625 54.6875 
L 27.390625 29.109375 
L 57.625 0 
L 45.90625 0 
L 18.109375 26.703125 
L 18.109375 0 
L 9.078125 0 
z
" id="DejaVuSans-107"/>
       <path d="M 4.203125 54.6875 
L 13.1875 54.6875 
L 24.421875 12.015625 
L 35.59375 54.6875 
L 46.1875 54.6875 
L 57.421875 12.015625 
L 68.609375 54.6875 
L 77.59375 54.6875 
L 63.28125 0 
L 52.6875 0 
L 40.921875 44.828125 
L 29.109375 0 
L 18.5 0 
z
" id="DejaVuSans-119"/>
      </defs>
      <use xlink:href="#DejaVuSans-66"/>
      <use x="68.603516" xlink:href="#DejaVuSans-111"/>
      <use x="129.785156" xlink:href="#DejaVuSans-110"/>
      <use x="193.164062" xlink:href="#DejaVuSans-117"/>
      <use x="256.542969" xlink:href="#DejaVuSans-115"/>
      <use x="308.642578" xlink:href="#DejaVuSans-32"/>
      <use x="340.429688" xlink:href="#DejaVuSans-49"/>
      <use x="404.052734" xlink:href="#DejaVuSans-32"/>
      <use x="435.839844" xlink:href="#DejaVuSans-40"/>
      <use x="474.853516" xlink:href="#DejaVuSans-107"/>
      <use x="532.763672" xlink:href="#DejaVuSans-110"/>
      <use x="596.142578" xlink:href="#DejaVuSans-111"/>
      <use x="657.324219" xlink:href="#DejaVuSans-119"/>
      <use x="739.111328" xlink:href="#DejaVuSans-110"/>
      <use x="802.490234" xlink:href="#DejaVuSans-32"/>
      <use x="834.277344" xlink:href="#DejaVuSans-100"/>
      <use x="897.753906" xlink:href="#DejaVuSans-101"/>
      <use x="959.277344" xlink:href="#DejaVuSans-109"/>
      <use x="1056.689453" xlink:href="#DejaVuSans-97"/>
      <use x="1117.96875" xlink:href="#DejaVuSans-110"/>
      <use x="1181.347656" xlink:href="#DejaVuSans-100"/>
      <use x="1244.824219" xlink:href="#DejaVuSans-41"/>
     </g>
    </g>
    <g id="line2d_39">
     <path d="M 61.079375 66.596437 
L 81.079375 66.596437 
" style="fill:none;stroke:#988ed5;stroke-linecap:square;stroke-width:1.5;"/>
    </g>
    <g id="line2d_40"/>
    <g id="text_22">
     <!-- Bonus 2 (predicted demand and inter_gen) -->
     <g transform="translate(89.079375 70.096437)scale(0.1 -0.1)">
      <defs>
       <path d="M 18.109375 8.203125 
L 18.109375 -20.796875 
L 9.078125 -20.796875 
L 9.078125 54.6875 
L 18.109375 54.6875 
L 18.109375 46.390625 
Q 20.953125 51.265625 25.265625 53.625 
Q 29.59375 56 35.59375 56 
Q 45.5625 56 51.78125 48.09375 
Q 58.015625 40.1875 58.015625 27.296875 
Q 58.015625 14.40625 51.78125 6.484375 
Q 45.5625 -1.421875 35.59375 -1.421875 
Q 29.59375 -1.421875 25.265625 0.953125 
Q 20.953125 3.328125 18.109375 8.203125 
z
M 48.6875 27.296875 
Q 48.6875 37.203125 44.609375 42.84375 
Q 40.53125 48.484375 33.40625 48.484375 
Q 26.265625 48.484375 22.1875 42.84375 
Q 18.109375 37.203125 18.109375 27.296875 
Q 18.109375 17.390625 22.1875 11.75 
Q 26.265625 6.109375 33.40625 6.109375 
Q 40.53125 6.109375 44.609375 11.75 
Q 48.6875 17.390625 48.6875 27.296875 
z
" id="DejaVuSans-112"/>
       <path d="M 48.78125 52.59375 
L 48.78125 44.1875 
Q 44.96875 46.296875 41.140625 47.34375 
Q 37.3125 48.390625 33.40625 48.390625 
Q 24.65625 48.390625 19.8125 42.84375 
Q 14.984375 37.3125 14.984375 27.296875 
Q 14.984375 17.28125 19.8125 11.734375 
Q 24.65625 6.203125 33.40625 6.203125 
Q 37.3125 6.203125 41.140625 7.25 
Q 44.96875 8.296875 48.78125 10.40625 
L 48.78125 2.09375 
Q 45.015625 0.34375 40.984375 -0.53125 
Q 36.96875 -1.421875 32.421875 -1.421875 
Q 20.0625 -1.421875 12.78125 6.34375 
Q 5.515625 14.109375 5.515625 27.296875 
Q 5.515625 40.671875 12.859375 48.328125 
Q 20.21875 56 33.015625 56 
Q 37.15625 56 41.109375 55.140625 
Q 45.0625 54.296875 48.78125 52.59375 
z
" id="DejaVuSans-99"/>
       <path d="M 50.984375 -16.609375 
L 50.984375 -23.578125 
L -0.984375 -23.578125 
L -0.984375 -16.609375 
z
" id="DejaVuSans-95"/>
       <path d="M 45.40625 27.984375 
Q 45.40625 37.75 41.375 43.109375 
Q 37.359375 48.484375 30.078125 48.484375 
Q 22.859375 48.484375 18.828125 43.109375 
Q 14.796875 37.75 14.796875 27.984375 
Q 14.796875 18.265625 18.828125 12.890625 
Q 22.859375 7.515625 30.078125 7.515625 
Q 37.359375 7.515625 41.375 12.890625 
Q 45.40625 18.265625 45.40625 27.984375 
z
M 54.390625 6.78125 
Q 54.390625 -7.171875 48.1875 -13.984375 
Q 42 -20.796875 29.203125 -20.796875 
Q 24.46875 -20.796875 20.265625 -20.09375 
Q 16.0625 -19.390625 12.109375 -17.921875 
L 12.109375 -9.1875 
Q 16.0625 -11.328125 19.921875 -12.34375 
Q 23.78125 -13.375 27.78125 -13.375 
Q 36.625 -13.375 41.015625 -8.765625 
Q 45.40625 -4.15625 45.40625 5.171875 
L 45.40625 9.625 
Q 42.625 4.78125 38.28125 2.390625 
Q 33.9375 0 27.875 0 
Q 17.828125 0 11.671875 7.65625 
Q 5.515625 15.328125 5.515625 27.984375 
Q 5.515625 40.671875 11.671875 48.328125 
Q 17.828125 56 27.875 56 
Q 33.9375 56 38.28125 53.609375 
Q 42.625 51.21875 45.40625 46.390625 
L 45.40625 54.6875 
L 54.390625 54.6875 
z
" id="DejaVuSans-103"/>
      </defs>
      <use xlink:href="#DejaVuSans-66"/>
      <use x="68.603516" xlink:href="#DejaVuSans-111"/>
      <use x="129.785156" xlink:href="#DejaVuSans-110"/>
      <use x="193.164062" xlink:href="#DejaVuSans-117"/>
      <use x="256.542969" xlink:href="#DejaVuSans-115"/>
      <use x="308.642578" xlink:href="#DejaVuSans-32"/>
      <use x="340.429688" xlink:href="#DejaVuSans-50"/>
      <use x="404.052734" xlink:href="#DejaVuSans-32"/>
      <use x="435.839844" xlink:href="#DejaVuSans-40"/>
      <use x="474.853516" xlink:href="#DejaVuSans-112"/>
      <use x="538.330078" xlink:href="#DejaVuSans-114"/>
      <use x="577.193359" xlink:href="#DejaVuSans-101"/>
      <use x="638.716797" xlink:href="#DejaVuSans-100"/>
      <use x="702.193359" xlink:href="#DejaVuSans-105"/>
      <use x="729.976562" xlink:href="#DejaVuSans-99"/>
      <use x="784.957031" xlink:href="#DejaVuSans-116"/>
      <use x="824.166016" xlink:href="#DejaVuSans-101"/>
      <use x="885.689453" xlink:href="#DejaVuSans-100"/>
      <use x="949.166016" xlink:href="#DejaVuSans-32"/>
      <use x="980.953125" xlink:href="#DejaVuSans-100"/>
      <use x="1044.429688" xlink:href="#DejaVuSans-101"/>
      <use x="1105.953125" xlink:href="#DejaVuSans-109"/>
      <use x="1203.365234" xlink:href="#DejaVuSans-97"/>
      <use x="1264.644531" xlink:href="#DejaVuSans-110"/>
      <use x="1328.023438" xlink:href="#DejaVuSans-100"/>
      <use x="1391.5" xlink:href="#DejaVuSans-32"/>
      <use x="1423.287109" xlink:href="#DejaVuSans-97"/>
      <use x="1484.566406" xlink:href="#DejaVuSans-110"/>
      <use x="1547.945312" xlink:href="#DejaVuSans-100"/>
      <use x="1611.421875" xlink:href="#DejaVuSans-32"/>
      <use x="1643.208984" xlink:href="#DejaVuSans-105"/>
      <use x="1670.992188" xlink:href="#DejaVuSans-110"/>
      <use x="1734.371094" xlink:href="#DejaVuSans-116"/>
      <use x="1773.580078" xlink:href="#DejaVuSans-101"/>
      <use x="1835.103516" xlink:href="#DejaVuSans-114"/>
      <use x="1876.216797" xlink:href="#DejaVuSans-95"/>
      <use x="1926.216797" xlink:href="#DejaVuSans-103"/>
      <use x="1989.693359" xlink:href="#DejaVuSans-101"/>
      <use x="2051.216797" xlink:href="#DejaVuSans-110"/>
      <use x="2114.595703" xlink:href="#DejaVuSans-41"/>
     </g>
    </g>
    <g id="line2d_41">
     <path d="M 61.079375 81.552687 
L 81.079375 81.552687 
" style="fill:none;stroke:#777777;stroke-linecap:square;stroke-width:1.5;"/>
    </g>
    <g id="line2d_42"/>
    <g id="text_23">
     <!-- Bonus 3 (predicted demand only) -->
     <g transform="translate(89.079375 85.052687)scale(0.1 -0.1)">
      <use xlink:href="#DejaVuSans-66"/>
      <use x="68.603516" xlink:href="#DejaVuSans-111"/>
      <use x="129.785156" xlink:href="#DejaVuSans-110"/>
      <use x="193.164062" xlink:href="#DejaVuSans-117"/>
      <use x="256.542969" xlink:href="#DejaVuSans-115"/>
      <use x="308.642578" xlink:href="#DejaVuSans-32"/>
      <use x="340.429688" xlink:href="#DejaVuSans-51"/>
      <use x="404.052734" xlink:href="#DejaVuSans-32"/>
      <use x="435.839844" xlink:href="#DejaVuSans-40"/>
      <use x="474.853516" xlink:href="#DejaVuSans-112"/>
      <use x="538.330078" xlink:href="#DejaVuSans-114"/>
      <use x="577.193359" xlink:href="#DejaVuSans-101"/>
      <use x="638.716797" xlink:href="#DejaVuSans-100"/>
      <use x="702.193359" xlink:href="#DejaVuSans-105"/>
      <use x="729.976562" xlink:href="#DejaVuSans-99"/>
      <use x="784.957031" xlink:href="#DejaVuSans-116"/>
      <use x="824.166016" xlink:href="#DejaVuSans-101"/>
      <use x="885.689453" xlink:href="#DejaVuSans-100"/>
      <use x="949.166016" xlink:href="#DejaVuSans-32"/>
      <use x="980.953125" xlink:href="#DejaVuSans-100"/>
      <use x="1044.429688" xlink:href="#DejaVuSans-101"/>
      <use x="1105.953125" xlink:href="#DejaVuSans-109"/>
      <use x="1203.365234" xlink:href="#DejaVuSans-97"/>
      <use x="1264.644531" xlink:href="#DejaVuSans-110"/>
      <use x="1328.023438" xlink:href="#DejaVuSans-100"/>
      <use x="1391.5" xlink:href="#DejaVuSans-32"/>
      <use x="1423.287109" xlink:href="#DejaVuSans-111"/>
      <use x="1484.46875" xlink:href="#DejaVuSans-110"/>
      <use x="1547.847656" xlink:href="#DejaVuSans-108"/>
      <use x="1575.630859" xlink:href="#DejaVuSans-121"/>
      <use x="1634.810547" xlink:href="#DejaVuSans-41"/>
     </g>
    </g>
   </g>
  </g>
 </g>
 <defs>
  <clipPath id="p529aa1fe10">
   <rect height="217.44" width="613.8" x="52.079375" y="24.14175"/>
  </clipPath>
 </defs>
</svg>
