<?xml version="1.0" encoding="utf-8" standalone="no"?>
<!DOCTYPE svg PUBLIC "-//W3C//DTD SVG 1.1//EN"
  "http://www.w3.org/Graphics/SVG/1.1/DTD/svg11.dtd">
<svg height="249.494481pt" version="1.1" viewBox="0 0 707.9625 249.494481" width="707.9625pt" xmlns="http://www.w3.org/2000/svg" xmlns:xlink="http://www.w3.org/1999/xlink">
 <metadata>
  <rdf:RDF xmlns:cc="http://creativecommons.org/ns#" xmlns:dc="http://purl.org/dc/elements/1.1/" xmlns:rdf="http://www.w3.org/1999/02/22-rdf-syntax-ns#">
   <cc:Work>
    <dc:type rdf:resource="http://purl.org/dc/dcmitype/StillImage"/>
    <dc:date>2021-10-08T04:25:47.190012</dc:date>
    <dc:format>image/svg+xml</dc:format>
    <dc:creator>
     <cc:Agent>
      <dc:title>Matplotlib v3.4.2, https://matplotlib.org/</dc:title>
     </cc:Agent>
    </dc:creator>
   </cc:Work>
  </rdf:RDF>
 </metadata>
 <defs>
  <style type="text/css">*{stroke-linecap:butt;stroke-linejoin:round;}</style>
 </defs>
 <g id="figure_1">
  <g id="patch_1">
   <path d="M 0 249.494481 
L 707.9625 249.494481 
L 707.9625 0 
L 0 0 
z
" style="fill:#ffffff;"/>
  </g>
  <g id="axes_1">
   <g id="patch_2">
    <path d="M 31.1625 226.149168 
L 700.7625 226.149168 
L 700.7625 8.709168 
L 31.1625 8.709168 
z
" style="fill:#eaeaf2;"/>
   </g>
   <g id="matplotlib.axis_1">
    <g id="xtick_1">
     <g id="line2d_1">
      <path clip-path="url(#p6c4c492600)" d="M 61.598864 226.149168 
L 61.598864 8.709168 
" style="fill:none;stroke:#ffffff;stroke-linecap:round;"/>
     </g>
     <g id="line2d_2"/>
     <g id="text_1">
      <!-- 100 -->
      <g style="fill:#262626;" transform="translate(53.257457 240.306981)scale(0.1 -0.1)">
       <defs>
        <path d="M 2384 0 
L 1822 0 
L 1822 3584 
Q 1619 3391 1289 3197 
Q 959 3003 697 2906 
L 697 3450 
Q 1169 3672 1522 3987 
Q 1875 4303 2022 4600 
L 2384 4600 
L 2384 0 
z
" id="ArialMT-31" transform="scale(0.015625)"/>
        <path d="M 266 2259 
Q 266 3072 433 3567 
Q 600 4063 929 4331 
Q 1259 4600 1759 4600 
Q 2128 4600 2406 4451 
Q 2684 4303 2865 4023 
Q 3047 3744 3150 3342 
Q 3253 2941 3253 2259 
Q 3253 1453 3087 958 
Q 2922 463 2592 192 
Q 2263 -78 1759 -78 
Q 1097 -78 719 397 
Q 266 969 266 2259 
z
M 844 2259 
Q 844 1131 1108 757 
Q 1372 384 1759 384 
Q 2147 384 2411 759 
Q 2675 1134 2675 2259 
Q 2675 3391 2411 3762 
Q 2147 4134 1753 4134 
Q 1366 4134 1134 3806 
Q 844 3388 844 2259 
z
" id="ArialMT-30" transform="scale(0.015625)"/>
       </defs>
       <use xlink:href="#ArialMT-31"/>
       <use x="55.615234" xlink:href="#ArialMT-30"/>
       <use x="111.230469" xlink:href="#ArialMT-30"/>
      </g>
     </g>
    </g>
    <g id="xtick_2">
     <g id="line2d_3">
      <path clip-path="url(#p6c4c492600)" d="M 138.072139 226.149168 
L 138.072139 8.709168 
" style="fill:none;stroke:#ffffff;stroke-linecap:round;"/>
     </g>
     <g id="line2d_4"/>
     <g id="text_2">
      <!-- 125 -->
      <g style="fill:#262626;" transform="translate(129.730733 240.306981)scale(0.1 -0.1)">
       <defs>
        <path d="M 3222 541 
L 3222 0 
L 194 0 
Q 188 203 259 391 
Q 375 700 629 1000 
Q 884 1300 1366 1694 
Q 2113 2306 2375 2664 
Q 2638 3022 2638 3341 
Q 2638 3675 2398 3904 
Q 2159 4134 1775 4134 
Q 1369 4134 1125 3890 
Q 881 3647 878 3216 
L 300 3275 
Q 359 3922 746 4261 
Q 1134 4600 1788 4600 
Q 2447 4600 2831 4234 
Q 3216 3869 3216 3328 
Q 3216 3053 3103 2787 
Q 2991 2522 2730 2228 
Q 2469 1934 1863 1422 
Q 1356 997 1212 845 
Q 1069 694 975 541 
L 3222 541 
z
" id="ArialMT-32" transform="scale(0.015625)"/>
        <path d="M 266 1200 
L 856 1250 
Q 922 819 1161 601 
Q 1400 384 1738 384 
Q 2144 384 2425 690 
Q 2706 997 2706 1503 
Q 2706 1984 2436 2262 
Q 2166 2541 1728 2541 
Q 1456 2541 1237 2417 
Q 1019 2294 894 2097 
L 366 2166 
L 809 4519 
L 3088 4519 
L 3088 3981 
L 1259 3981 
L 1013 2750 
Q 1425 3038 1878 3038 
Q 2478 3038 2890 2622 
Q 3303 2206 3303 1553 
Q 3303 931 2941 478 
Q 2500 -78 1738 -78 
Q 1113 -78 717 272 
Q 322 622 266 1200 
z
" id="ArialMT-35" transform="scale(0.015625)"/>
       </defs>
       <use xlink:href="#ArialMT-31"/>
       <use x="55.615234" xlink:href="#ArialMT-32"/>
       <use x="111.230469" xlink:href="#ArialMT-35"/>
      </g>
     </g>
    </g>
    <g id="xtick_3">
     <g id="line2d_5">
      <path clip-path="url(#p6c4c492600)" d="M 214.545415 226.149168 
L 214.545415 8.709168 
" style="fill:none;stroke:#ffffff;stroke-linecap:round;"/>
     </g>
     <g id="line2d_6"/>
     <g id="text_3">
      <!-- 150 -->
      <g style="fill:#262626;" transform="translate(206.204008 240.306981)scale(0.1 -0.1)">
       <use xlink:href="#ArialMT-31"/>
       <use x="55.615234" xlink:href="#ArialMT-35"/>
       <use x="111.230469" xlink:href="#ArialMT-30"/>
      </g>
     </g>
    </g>
    <g id="xtick_4">
     <g id="line2d_7">
      <path clip-path="url(#p6c4c492600)" d="M 291.01869 226.149168 
L 291.01869 8.709168 
" style="fill:none;stroke:#ffffff;stroke-linecap:round;"/>
     </g>
     <g id="line2d_8"/>
     <g id="text_4">
      <!-- 175 -->
      <g style="fill:#262626;" transform="translate(282.677284 240.306981)scale(0.1 -0.1)">
       <defs>
        <path d="M 303 3981 
L 303 4522 
L 3269 4522 
L 3269 4084 
Q 2831 3619 2401 2847 
Q 1972 2075 1738 1259 
Q 1569 684 1522 0 
L 944 0 
Q 953 541 1156 1306 
Q 1359 2072 1739 2783 
Q 2119 3494 2547 3981 
L 303 3981 
z
" id="ArialMT-37" transform="scale(0.015625)"/>
       </defs>
       <use xlink:href="#ArialMT-31"/>
       <use x="55.615234" xlink:href="#ArialMT-37"/>
       <use x="111.230469" xlink:href="#ArialMT-35"/>
      </g>
     </g>
    </g>
    <g id="xtick_5">
     <g id="line2d_9">
      <path clip-path="url(#p6c4c492600)" d="M 367.491966 226.149168 
L 367.491966 8.709168 
" style="fill:none;stroke:#ffffff;stroke-linecap:round;"/>
     </g>
     <g id="line2d_10"/>
     <g id="text_5">
      <!-- 200 -->
      <g style="fill:#262626;" transform="translate(359.150559 240.306981)scale(0.1 -0.1)">
       <use xlink:href="#ArialMT-32"/>
       <use x="55.615234" xlink:href="#ArialMT-30"/>
       <use x="111.230469" xlink:href="#ArialMT-30"/>
      </g>
     </g>
    </g>
    <g id="xtick_6">
     <g id="line2d_11">
      <path clip-path="url(#p6c4c492600)" d="M 443.965241 226.149168 
L 443.965241 8.709168 
" style="fill:none;stroke:#ffffff;stroke-linecap:round;"/>
     </g>
     <g id="line2d_12"/>
     <g id="text_6">
      <!-- 225 -->
      <g style="fill:#262626;" transform="translate(435.623835 240.306981)scale(0.1 -0.1)">
       <use xlink:href="#ArialMT-32"/>
       <use x="55.615234" xlink:href="#ArialMT-32"/>
       <use x="111.230469" xlink:href="#ArialMT-35"/>
      </g>
     </g>
    </g>
    <g id="xtick_7">
     <g id="line2d_13">
      <path clip-path="url(#p6c4c492600)" d="M 520.438516 226.149168 
L 520.438516 8.709168 
" style="fill:none;stroke:#ffffff;stroke-linecap:round;"/>
     </g>
     <g id="line2d_14"/>
     <g id="text_7">
      <!-- 250 -->
      <g style="fill:#262626;" transform="translate(512.09711 240.306981)scale(0.1 -0.1)">
       <use xlink:href="#ArialMT-32"/>
       <use x="55.615234" xlink:href="#ArialMT-35"/>
       <use x="111.230469" xlink:href="#ArialMT-30"/>
      </g>
     </g>
    </g>
    <g id="xtick_8">
     <g id="line2d_15">
      <path clip-path="url(#p6c4c492600)" d="M 596.911792 226.149168 
L 596.911792 8.709168 
" style="fill:none;stroke:#ffffff;stroke-linecap:round;"/>
     </g>
     <g id="line2d_16"/>
     <g id="text_8">
      <!-- 275 -->
      <g style="fill:#262626;" transform="translate(588.570386 240.306981)scale(0.1 -0.1)">
       <use xlink:href="#ArialMT-32"/>
       <use x="55.615234" xlink:href="#ArialMT-37"/>
       <use x="111.230469" xlink:href="#ArialMT-35"/>
      </g>
     </g>
    </g>
    <g id="xtick_9">
     <g id="line2d_17">
      <path clip-path="url(#p6c4c492600)" d="M 673.385067 226.149168 
L 673.385067 8.709168 
" style="fill:none;stroke:#ffffff;stroke-linecap:round;"/>
     </g>
     <g id="line2d_18"/>
     <g id="text_9">
      <!-- 300 -->
      <g style="fill:#262626;" transform="translate(665.043661 240.306981)scale(0.1 -0.1)">
       <defs>
        <path d="M 269 1209 
L 831 1284 
Q 928 806 1161 595 
Q 1394 384 1728 384 
Q 2125 384 2398 659 
Q 2672 934 2672 1341 
Q 2672 1728 2419 1979 
Q 2166 2231 1775 2231 
Q 1616 2231 1378 2169 
L 1441 2663 
Q 1497 2656 1531 2656 
Q 1891 2656 2178 2843 
Q 2466 3031 2466 3422 
Q 2466 3731 2256 3934 
Q 2047 4138 1716 4138 
Q 1388 4138 1169 3931 
Q 950 3725 888 3313 
L 325 3413 
Q 428 3978 793 4289 
Q 1159 4600 1703 4600 
Q 2078 4600 2393 4439 
Q 2709 4278 2876 4000 
Q 3044 3722 3044 3409 
Q 3044 3113 2884 2869 
Q 2725 2625 2413 2481 
Q 2819 2388 3044 2092 
Q 3269 1797 3269 1353 
Q 3269 753 2831 336 
Q 2394 -81 1725 -81 
Q 1122 -81 723 278 
Q 325 638 269 1209 
z
" id="ArialMT-33" transform="scale(0.015625)"/>
       </defs>
       <use xlink:href="#ArialMT-33"/>
       <use x="55.615234" xlink:href="#ArialMT-30"/>
       <use x="111.230469" xlink:href="#ArialMT-30"/>
      </g>
     </g>
    </g>
   </g>
   <g id="matplotlib.axis_2">
    <g id="ytick_1">
     <g id="line2d_19">
      <path clip-path="url(#p6c4c492600)" d="M 31.1625 197.330541 
L 700.7625 197.330541 
" style="fill:none;stroke:#ffffff;stroke-linecap:round;"/>
     </g>
     <g id="line2d_20"/>
     <g id="text_10">
      <!-- −40 -->
      <g style="fill:#262626;" transform="translate(7.2 200.909447)scale(0.1 -0.1)">
       <defs>
        <path d="M 3381 1997 
L 356 1997 
L 356 2522 
L 3381 2522 
L 3381 1997 
z
" id="ArialMT-2212" transform="scale(0.015625)"/>
        <path d="M 2069 0 
L 2069 1097 
L 81 1097 
L 81 1613 
L 2172 4581 
L 2631 4581 
L 2631 1613 
L 3250 1613 
L 3250 1097 
L 2631 1097 
L 2631 0 
L 2069 0 
z
M 2069 1613 
L 2069 3678 
L 634 1613 
L 2069 1613 
z
" id="ArialMT-34" transform="scale(0.015625)"/>
       </defs>
       <use xlink:href="#ArialMT-2212"/>
       <use x="58.398438" xlink:href="#ArialMT-34"/>
       <use x="114.013672" xlink:href="#ArialMT-30"/>
      </g>
     </g>
    </g>
    <g id="ytick_2">
     <g id="line2d_21">
      <path clip-path="url(#p6c4c492600)" d="M 31.1625 160.020214 
L 700.7625 160.020214 
" style="fill:none;stroke:#ffffff;stroke-linecap:round;"/>
     </g>
     <g id="line2d_22"/>
     <g id="text_11">
      <!-- −20 -->
      <g style="fill:#262626;" transform="translate(7.2 163.59912)scale(0.1 -0.1)">
       <use xlink:href="#ArialMT-2212"/>
       <use x="58.398438" xlink:href="#ArialMT-32"/>
       <use x="114.013672" xlink:href="#ArialMT-30"/>
      </g>
     </g>
    </g>
    <g id="ytick_3">
     <g id="line2d_23">
      <path clip-path="url(#p6c4c492600)" d="M 31.1625 122.709887 
L 700.7625 122.709887 
" style="fill:none;stroke:#ffffff;stroke-linecap:round;"/>
     </g>
     <g id="line2d_24"/>
     <g id="text_12">
      <!-- 0 -->
      <g style="fill:#262626;" transform="translate(18.601563 126.288793)scale(0.1 -0.1)">
       <use xlink:href="#ArialMT-30"/>
      </g>
     </g>
    </g>
    <g id="ytick_4">
     <g id="line2d_25">
      <path clip-path="url(#p6c4c492600)" d="M 31.1625 85.39956 
L 700.7625 85.39956 
" style="fill:none;stroke:#ffffff;stroke-linecap:round;"/>
     </g>
     <g id="line2d_26"/>
     <g id="text_13">
      <!-- 20 -->
      <g style="fill:#262626;" transform="translate(13.040625 88.978466)scale(0.1 -0.1)">
       <use xlink:href="#ArialMT-32"/>
       <use x="55.615234" xlink:href="#ArialMT-30"/>
      </g>
     </g>
    </g>
    <g id="ytick_5">
     <g id="line2d_27">
      <path clip-path="url(#p6c4c492600)" d="M 31.1625 48.089233 
L 700.7625 48.089233 
" style="fill:none;stroke:#ffffff;stroke-linecap:round;"/>
     </g>
     <g id="line2d_28"/>
     <g id="text_14">
      <!-- 40 -->
      <g style="fill:#262626;" transform="translate(13.040625 51.668139)scale(0.1 -0.1)">
       <use xlink:href="#ArialMT-34"/>
       <use x="55.615234" xlink:href="#ArialMT-30"/>
      </g>
     </g>
    </g>
    <g id="ytick_6">
     <g id="line2d_29">
      <path clip-path="url(#p6c4c492600)" d="M 31.1625 10.778906 
L 700.7625 10.778906 
" style="fill:none;stroke:#ffffff;stroke-linecap:round;"/>
     </g>
     <g id="line2d_30"/>
     <g id="text_15">
      <!-- 60 -->
      <g style="fill:#262626;" transform="translate(13.040625 14.357812)scale(0.1 -0.1)">
       <defs>
        <path d="M 3184 3459 
L 2625 3416 
Q 2550 3747 2413 3897 
Q 2184 4138 1850 4138 
Q 1581 4138 1378 3988 
Q 1113 3794 959 3422 
Q 806 3050 800 2363 
Q 1003 2672 1297 2822 
Q 1591 2972 1913 2972 
Q 2475 2972 2870 2558 
Q 3266 2144 3266 1488 
Q 3266 1056 3080 686 
Q 2894 316 2569 119 
Q 2244 -78 1831 -78 
Q 1128 -78 684 439 
Q 241 956 241 2144 
Q 241 3472 731 4075 
Q 1159 4600 1884 4600 
Q 2425 4600 2770 4297 
Q 3116 3994 3184 3459 
z
M 888 1484 
Q 888 1194 1011 928 
Q 1134 663 1356 523 
Q 1578 384 1822 384 
Q 2178 384 2434 671 
Q 2691 959 2691 1453 
Q 2691 1928 2437 2201 
Q 2184 2475 1800 2475 
Q 1419 2475 1153 2201 
Q 888 1928 888 1484 
z
" id="ArialMT-36" transform="scale(0.015625)"/>
       </defs>
       <use xlink:href="#ArialMT-36"/>
       <use x="55.615234" xlink:href="#ArialMT-30"/>
      </g>
     </g>
    </g>
   </g>
   <g id="line2d_31">
    <path clip-path="url(#p6c4c492600)" d="M 61.598864 66.110121 
L 64.657795 65.681052 
L 67.716726 69.262844 
L 70.775657 79.933597 
L 73.834588 72.191704 
L 76.893519 60.942641 
L 79.95245 60.382986 
L 83.011381 60.271055 
L 86.070312 62.845468 
L 89.129243 71.874567 
L 92.188174 59.860641 
L 95.247105 63.442433 
L 98.306036 60.32702 
L 101.364967 56.073643 
L 104.423898 57.789918 
L 107.482829 58.983849 
L 110.54176 68.684534 
L 113.600691 101.853414 
L 116.659622 124.351542 
L 119.718553 110.938479 
L 122.777484 114.352374 
L 125.836415 121.105543 
L 128.895346 136.962432 
L 131.954277 182.313135 
L 135.013208 159.255352 
L 138.072139 189.7752 
L 141.13107 167.668831 
L 144.190001 154.94601 
L 147.248932 123.810542 
L 150.307863 116.75889 
L 153.366794 104.819585 
L 156.425725 70.606016 
L 159.484656 71.557429 
L 162.543587 69.281499 
L 165.602518 74.318393 
L 168.661449 80.23208 
L 171.72038 73.497566 
L 174.779311 70.270223 
L 177.838242 71.63205 
L 180.897173 82.00432 
L 183.956104 66.054156 
L 187.015035 60.028538 
L 190.073966 61.259779 
L 193.132897 56.465402 
L 196.191828 70.680636 
L 199.250759 74.150497 
L 202.30969 114.874719 
L 205.368622 122.280818 
L 208.427553 106.162757 
L 211.486484 114.184477 
L 214.545415 122.709887 
L 217.604346 122.709887 
L 220.663277 124.519438 
L 223.722208 120.73244 
L 226.781139 109.054308 
L 229.84007 96.760555 
L 232.899001 103.401793 
L 235.957932 106.908964 
L 239.016863 114.165822 
L 242.075794 159.964249 
L 245.134725 122.243508 
L 248.193656 123.941128 
L 251.252587 131.403193 
L 260.42938 168.881417 
L 263.488311 171.474485 
L 266.547242 128.343747 
L 269.606173 132.634434 
L 272.665104 150.114322 
L 275.724035 139.443569 
L 278.782966 125.265645 
L 281.841897 133.977606 
L 284.900828 134.145502 
L 287.959759 109.278169 
L 291.01869 107.375343 
L 294.077621 105.715033 
L 297.136552 114.203133 
L 300.195483 105.789654 
L 303.254414 107.058205 
L 306.313345 103.588345 
L 309.372276 97.749278 
L 312.431207 73.36698 
L 315.490138 63.890157 
L 318.549069 65.718363 
L 321.608 65.587777 
L 324.666931 68.442017 
L 327.725862 88.104559 
L 330.784793 110.584031 
L 333.843724 109.688583 
L 336.902655 117.262579 
L 339.961586 102.525 
L 343.020517 94.372694 
L 346.079448 111.777961 
L 349.138379 112.953237 
L 352.19731 133.88433 
L 355.256241 162.93042 
L 358.315172 122.709887 
L 361.374103 167.239762 
L 364.433034 175.205517 
L 367.491966 154.535596 
L 370.550897 141.383706 
L 373.609828 121.627888 
L 376.668759 106.703757 
L 379.72769 92.712384 
L 382.786621 90.958799 
L 385.845552 105.435206 
L 388.904483 92.656419 
L 391.963414 106.517205 
L 395.022345 90.305868 
L 398.081276 99.59614 
L 401.140207 84.933181 
L 404.199138 107.841722 
L 407.258069 106.983584 
L 410.317 137.671328 
L 413.375931 124.985817 
L 416.434862 121.571922 
L 419.493793 139.667431 
L 422.552724 127.56023 
L 425.611655 148.15553 
L 428.670586 172.052795 
L 431.729517 154.778113 
L 434.788448 132.76502 
L 437.847379 146.028842 
L 440.90631 136.831846 
L 443.965241 103.084655 
L 447.024172 85.474181 
L 450.083103 89.167903 
L 453.142034 91.481143 
L 456.200965 89.093283 
L 459.259896 70.717947 
L 462.318827 60.494917 
L 465.377758 57.491436 
L 468.436689 58.797297 
L 471.49562 60.550882 
L 474.554551 59.841986 
L 477.613482 70.307533 
L 480.672413 64.655018 
L 483.731344 74.038566 
L 486.790275 61.129193 
L 489.849206 56.913126 
L 492.908137 58.293608 
L 495.967068 69.673257 
L 499.025999 105.752344 
L 502.08493 106.032171 
L 505.143861 109.744549 
L 508.202792 106.386619 
L 511.261723 105.770999 
L 514.320654 106.218723 
L 517.379585 105.584447 
L 520.438516 103.047345 
L 523.497447 79.579149 
L 526.556378 96.704589 
L 529.61531 76.314496 
L 532.674241 63.405122 
L 535.733172 68.721844 
L 538.792103 82.937079 
L 541.851034 166.40028 
L 544.909965 109.576652 
L 547.968896 120.657819 
L 551.027827 147.446634 
L 554.086758 165.318281 
L 557.145689 143.808877 
L 560.20462 157.165974 
L 563.263551 176.212896 
L 566.322482 216.265532 
L 569.381413 191.211647 
L 572.440344 199.345299 
L 575.499275 195.315783 
L 578.558206 198.095403 
L 581.617137 208.952708 
L 584.676068 213.131465 
L 587.734999 210.445121 
L 590.79393 200.315367 
L 593.852861 180.690135 
L 596.911792 169.553003 
L 599.970723 159.796352 
L 603.029654 134.555916 
L 606.088585 100.230415 
L 609.147516 89.111938 
L 612.206447 94.148832 
L 615.265378 58.536125 
L 618.324309 62.323123 
L 621.38324 86.425594 
L 624.442171 108.643894 
L 627.501102 106.759722 
L 630.560033 105.845619 
L 633.618964 66.763052 
L 636.677895 64.636363 
L 639.736826 96.368796 
L 642.795757 148.715185 
L 645.854688 152.651425 
L 648.913619 168.06059 
L 651.97255 161.512627 
L 655.031481 122.672577 
L 658.090412 139.145086 
L 661.149343 179.533515 
L 664.208274 137.354191 
L 667.267205 129.481712 
L 670.326136 132.000159 
L 670.326136 132.000159 
" style="fill:none;stroke:#4c72b0;stroke-linecap:round;stroke-width:1.75;"/>
   </g>
   <g id="line2d_32">
    <path clip-path="url(#p6c4c492600)" d="M 61.598864 95.310581 
L 64.657795 95.301681 
L 67.716726 102.157901 
L 70.775657 106.394716 
L 73.834588 109.019259 
L 76.893519 105.813633 
L 79.95245 105.440212 
L 83.011381 103.906908 
L 86.070312 100.998275 
L 92.188174 93.248557 
L 95.247105 91.461423 
L 98.306036 88.197732 
L 101.364967 82.662049 
L 104.423898 81.2358 
L 107.482829 84.013278 
L 110.54176 90.180865 
L 113.600691 97.564242 
L 116.659622 100.378166 
L 119.718553 101.812653 
L 122.777484 106.069466 
L 125.836415 111.93773 
L 128.895346 119.471489 
L 131.954277 129.238541 
L 135.013208 134.901895 
L 138.072139 130.992236 
L 141.13107 125.808619 
L 144.190001 124.219556 
L 147.248932 121.737874 
L 150.307863 110.99897 
L 153.366794 106.272852 
L 156.425725 96.612621 
L 159.484656 94.121566 
L 165.602518 95.206526 
L 168.661449 97.885757 
L 171.72038 99.073232 
L 174.779311 97.601432 
L 177.838242 100.322046 
L 180.897173 105.319708 
L 183.956104 112.378722 
L 187.015035 115.167681 
L 190.073966 113.227273 
L 193.132897 102.842901 
L 196.191828 68.495878 
L 199.250759 85.50417 
L 202.30969 97.83832 
L 205.368622 108.005281 
L 208.427553 114.67566 
L 211.486484 122.443132 
L 214.545415 127.171573 
L 217.604346 131.35178 
L 220.663277 132.46923 
L 223.722208 130.175659 
L 226.781139 126.450818 
L 229.84007 114.934103 
L 232.899001 107.428597 
L 235.957932 99.507328 
L 239.016863 92.288082 
L 242.075794 90.453582 
L 245.134725 89.939801 
L 248.193656 88.297159 
L 251.252587 92.428285 
L 254.311518 95.247222 
L 257.370449 98.355374 
L 260.42938 99.570029 
L 263.488311 95.784736 
L 266.547242 95.715505 
L 269.606173 95.873093 
L 272.665104 96.16254 
L 275.724035 97.160026 
L 278.782966 94.77952 
L 281.841897 91.658563 
L 284.900828 90.34759 
L 287.959759 85.31258 
L 291.01869 82.601109 
L 294.077621 79.105261 
L 297.136552 70.209503 
L 300.195483 60.593662 
L 303.254414 59.541488 
L 306.313345 59.23503 
L 309.372276 61.16303 
L 312.431207 61.468923 
L 315.490138 64.584835 
L 318.549069 65.256668 
L 321.608 66.762095 
L 324.666931 70.513463 
L 327.725862 78.044337 
L 330.784793 83.388608 
L 333.843724 89.542951 
L 336.902655 97.172355 
L 339.961586 88.12775 
L 343.020517 102.647863 
L 346.079448 111.136927 
L 349.138379 120.25394 
L 352.19731 125.612294 
L 355.256241 132.518118 
L 358.315172 137.056465 
L 361.374103 140.481293 
L 364.433034 141.547247 
L 367.491966 140.928787 
L 370.550897 137.065846 
L 373.609828 131.064534 
L 379.72769 117.165029 
L 382.786621 106.915392 
L 385.845552 98.124245 
L 388.904483 95.664667 
L 391.963414 94.00298 
L 395.022345 90.056417 
L 398.081276 88.424922 
L 401.140207 86.31471 
L 404.199138 87.373053 
L 407.258069 86.190587 
L 410.317 87.689829 
L 413.375931 87.286082 
L 416.434862 84.714451 
L 419.493793 84.412256 
L 422.552724 82.29717 
L 425.611655 89.062993 
L 428.670586 92.91042 
L 431.729517 93.65203 
L 434.788448 91.095198 
L 437.847379 85.441518 
L 440.90631 84.059018 
L 443.965241 77.347392 
L 447.024172 72.479097 
L 450.083103 69.922023 
L 453.142034 66.982902 
L 456.200965 69.046102 
L 459.259896 71.526417 
L 462.318827 67.309274 
L 465.377758 64.080947 
L 468.436689 65.881813 
L 471.49562 72.311948 
L 474.554551 80.301616 
L 477.613482 90.841713 
L 480.672413 97.896525 
L 483.731344 100.78068 
L 486.790275 90.79488 
L 489.849206 74.780673 
L 492.908137 94.953798 
L 495.967068 104.718853 
L 499.025999 111.718075 
L 502.08493 121.467909 
L 505.143861 129.92261 
L 508.202792 135.287322 
L 511.261723 133.400985 
L 514.320654 138.72952 
L 517.379585 132.549037 
L 520.438516 127.844891 
L 523.497447 116.493538 
L 526.556378 109.899683 
L 529.61531 100.622846 
L 532.674241 93.085892 
L 535.733172 89.605484 
L 538.792103 88.883879 
L 541.851034 89.425288 
L 544.909965 88.14445 
L 547.968896 89.956502 
L 551.027827 94.410825 
L 554.086758 95.142 
L 557.145689 99.034725 
L 560.20462 100.389317 
L 563.263551 103.150428 
L 566.322482 104.581978 
L 569.381413 106.175467 
L 572.440344 109.091429 
L 575.499275 113.731984 
L 578.558206 118.698103 
L 581.617137 122.310217 
L 584.676068 120.922246 
L 587.734999 119.393514 
L 590.79393 112.913324 
L 593.852861 100.532826 
L 596.911792 92.737478 
L 599.970723 87.631712 
L 603.029654 83.121771 
L 606.088585 82.841774 
L 609.147516 86.861565 
L 612.206447 84.865848 
L 615.265378 88.440016 
L 618.324309 93.07609 
L 621.38324 101.504149 
L 624.442171 107.906043 
L 627.501102 112.994642 
L 630.560033 117.810939 
L 633.618964 106.044973 
L 636.677895 80.539375 
L 639.736826 100.0821 
L 642.795757 114.74993 
L 645.854688 123.017327 
L 648.913619 132.269565 
L 651.97255 137.961906 
L 655.031481 146.404845 
L 658.090412 142.380217 
L 661.149343 140.86115 
L 664.208274 134.10753 
L 667.267205 129.846228 
L 670.326136 120.66641 
L 670.326136 120.66641 
" style="fill:none;stroke:#55a868;stroke-linecap:round;stroke-width:1.75;"/>
   </g>
   <g id="line2d_33">
    <path clip-path="url(#p6c4c492600)" d="M 61.598864 91.384778 
L 64.657795 92.188898 
L 67.716726 96.670675 
L 70.775657 99.729537 
L 73.834588 100.998163 
L 76.893519 98.84761 
L 83.011381 98.571693 
L 89.129243 96.54618 
L 92.188174 95.957743 
L 95.247105 96.573124 
L 98.306036 95.849128 
L 101.364967 92.968077 
L 104.423898 94.134489 
L 110.54176 93.454133 
L 113.600691 91.521408 
L 116.659622 67.416675 
L 119.718553 63.545077 
L 122.777484 66.738343 
L 125.836415 73.180753 
L 128.895346 76.667947 
L 131.954277 83.607701 
L 135.013208 73.809895 
L 138.072139 74.864693 
L 141.13107 80.920355 
L 144.190001 83.125211 
L 147.248932 96.229158 
L 150.307863 92.055328 
L 153.366794 95.888965 
L 156.425725 89.174675 
L 159.484656 90.06229 
L 162.543587 95.754562 
L 165.602518 94.812992 
L 168.661449 99.118794 
L 171.72038 99.46094 
L 174.779311 101.061139 
L 177.838242 101.008479 
L 180.897173 108.385351 
L 183.956104 112.997359 
L 187.015035 114.555929 
L 190.073966 113.582142 
L 193.132897 104.135789 
L 196.191828 70.801339 
L 199.250759 87.510324 
L 202.30969 100.41819 
L 205.368622 108.289225 
L 208.427553 115.465513 
L 211.486484 121.133596 
L 214.545415 123.503602 
L 217.604346 127.445422 
L 220.663277 128.948528 
L 223.722208 123.134256 
L 226.781139 119.149309 
L 229.84007 109.006229 
L 232.899001 92.469059 
L 235.957932 86.347871 
L 239.016863 69.38551 
L 242.075794 69.578354 
L 245.134725 63.643137 
L 248.193656 56.245318 
L 251.252587 58.591725 
L 254.311518 63.106383 
L 257.370449 66.622971 
L 260.42938 73.487912 
L 263.488311 73.045326 
L 266.547242 70.274383 
L 269.606173 70.690488 
L 272.665104 69.977123 
L 275.724035 70.57253 
L 278.782966 68.596221 
L 281.841897 65.531947 
L 284.900828 61.454634 
L 287.959759 59.787228 
L 291.01869 62.383827 
L 294.077621 58.863081 
L 297.136552 53.461007 
L 300.195483 27.522058 
L 303.254414 20.325343 
L 306.313345 18.592805 
L 309.372276 20.723697 
L 312.431207 33.595201 
L 315.490138 36.054226 
L 318.549069 56.475574 
L 321.608 55.536217 
L 324.666931 62.381309 
L 327.725862 68.391808 
L 330.784793 76.752461 
L 333.843724 82.822575 
L 336.902655 90.357683 
L 339.961586 87.20387 
L 343.020517 97.825055 
L 346.079448 107.738077 
L 349.138379 118.621792 
L 352.19731 125.358545 
L 355.256241 133.136332 
L 358.315172 134.634466 
L 361.374103 137.549148 
L 364.433034 138.097011 
L 367.491966 138.472884 
L 370.550897 138.675744 
L 373.609828 131.399863 
L 376.668759 125.295183 
L 379.72769 112.538227 
L 382.786621 105.807163 
L 385.845552 69.966124 
L 388.904483 65.575622 
L 391.963414 65.548201 
L 395.022345 63.442506 
L 398.081276 56.550103 
L 401.140207 65.604289 
L 404.199138 70.656917 
L 407.258069 75.239677 
L 410.317 75.623803 
L 413.375931 74.73322 
L 416.434862 71.797123 
L 419.493793 69.943832 
L 422.552724 70.331797 
L 425.611655 71.363648 
L 428.670586 73.424242 
L 431.729517 74.213529 
L 434.788448 68.921618 
L 437.847379 56.268404 
L 440.90631 53.745891 
L 443.965241 55.873077 
L 447.024172 62.966977 
L 450.083103 56.651885 
L 453.142034 47.767953 
L 456.200965 48.447987 
L 459.259896 50.435638 
L 462.318827 46.784793 
L 465.377758 50.014601 
L 468.436689 49.396117 
L 471.49562 63.645833 
L 474.554551 66.332213 
L 477.613482 86.165115 
L 480.672413 89.75115 
L 483.731344 98.031828 
L 486.790275 85.740043 
L 489.849206 66.076735 
L 492.908137 87.278778 
L 495.967068 100.562389 
L 499.025999 107.780428 
L 505.143861 127.101301 
L 508.202792 131.330072 
L 511.261723 130.124558 
L 514.320654 134.429474 
L 517.379585 126.693959 
L 520.438516 122.896871 
L 523.497447 112.081169 
L 526.556378 104.528334 
L 529.61531 89.556427 
L 532.674241 64.604709 
L 535.733172 61.887248 
L 538.792103 66.684812 
L 541.851034 68.467597 
L 544.909965 66.708858 
L 547.968896 58.716 
L 551.027827 64.152086 
L 554.086758 61.870685 
L 557.145689 53.868876 
L 563.263551 45.506181 
L 566.322482 46.199157 
L 569.381413 45.056639 
L 572.440344 47.545563 
L 575.499275 62.786822 
L 578.558206 61.379697 
L 581.617137 63.535856 
L 584.676068 65.385107 
L 587.734999 79.262577 
L 590.79393 79.575251 
L 593.852861 74.090933 
L 596.911792 70.471123 
L 599.970723 68.647613 
L 603.029654 68.519841 
L 606.088585 66.024122 
L 609.147516 70.457176 
L 612.206447 66.431706 
L 615.265378 70.949489 
L 618.324309 80.261253 
L 621.38324 83.860503 
L 624.442171 95.367244 
L 627.501102 106.166809 
L 630.560033 108.342467 
L 633.618964 98.1967 
L 636.677895 75.425696 
L 639.736826 96.486412 
L 642.795757 110.089422 
L 645.854688 119.778876 
L 648.913619 126.226752 
L 651.97255 136.137031 
L 655.031481 142.613048 
L 658.090412 138.133129 
L 661.149343 136.37184 
L 664.208274 132.239192 
L 667.267205 126.442939 
L 670.326136 114.049581 
L 670.326136 114.049581 
" style="fill:none;stroke:#c44e52;stroke-linecap:round;stroke-width:1.75;"/>
   </g>
   <g id="line2d_34">
    <path clip-path="url(#p6c4c492600)" d="M 61.598864 103.672356 
L 64.657795 108.370071 
L 67.716726 114.371759 
L 70.775657 113.729169 
L 73.834588 115.622749 
L 76.893519 116.387923 
L 79.95245 116.676414 
L 83.011381 115.40614 
L 86.070312 113.908874 
L 89.129243 111.476164 
L 92.188174 112.129932 
L 95.247105 112.113314 
L 98.306036 112.455092 
L 101.364967 110.915566 
L 104.423898 110.790549 
L 107.482829 111.354623 
L 110.54176 108.418859 
L 113.600691 101.732957 
L 116.659622 82.676252 
L 119.718553 82.934093 
L 122.777484 80.042154 
L 125.836415 80.464293 
L 128.895346 82.228167 
L 131.954277 78.733827 
L 135.013208 63.272408 
L 138.072139 57.507261 
L 141.13107 61.363242 
L 144.190001 57.828023 
L 147.248932 59.493266 
L 150.307863 70.584148 
L 153.366794 56.316903 
L 156.425725 50.6955 
L 159.484656 48.711155 
L 162.543587 50.813669 
L 165.602518 49.341202 
L 168.661449 57.322148 
L 171.72038 59.77862 
L 174.779311 63.389541 
L 177.838242 68.824164 
L 180.897173 73.489881 
L 183.956104 83.481855 
L 187.015035 88.286977 
L 190.073966 94.133281 
L 193.132897 84.630314 
L 196.191828 64.489676 
L 199.250759 78.15715 
L 202.30969 88.636215 
L 205.368622 95.991582 
L 208.427553 106.208117 
L 211.486484 109.45758 
L 214.545415 111.258454 
L 217.604346 111.506435 
L 220.663277 109.776721 
L 223.722208 100.772321 
L 226.781139 95.230378 
L 229.84007 84.522952 
L 232.899001 68.657934 
L 235.957932 61.087008 
L 239.016863 41.763775 
L 242.075794 45.232131 
L 245.134725 43.419931 
L 248.193656 33.483858 
L 251.252587 34.126704 
L 254.311518 38.629667 
L 257.370449 42.69239 
L 260.42938 53.621672 
L 263.488311 56.200943 
L 266.547242 60.289513 
L 269.606173 61.677705 
L 272.665104 62.512918 
L 275.724035 60.014287 
L 278.782966 59.062684 
L 281.841897 57.535272 
L 284.900828 53.667109 
L 287.959759 55.056206 
L 291.01869 52.443106 
L 294.077621 45.718865 
L 297.136552 40.500278 
L 300.195483 19.958205 
L 303.254414 29.1986 
L 306.313345 25.499284 
L 309.372276 24.063355 
L 312.431207 32.7601 
L 315.490138 35.190722 
L 318.549069 39.634151 
L 321.608 35.741452 
L 324.666931 48.229574 
L 327.725862 53.564739 
L 330.784793 61.188894 
L 333.843724 70.60905 
L 336.902655 74.544239 
L 339.961586 66.855805 
L 343.020517 96.763134 
L 349.138379 119.227277 
L 352.19731 125.181192 
L 355.256241 136.350536 
L 361.374103 144.407454 
L 364.433034 145.225578 
L 367.491966 144.430222 
L 370.550897 141.987869 
L 373.609828 135.934177 
L 376.668759 124.627471 
L 379.72769 113.830724 
L 382.786621 104.151892 
L 385.845552 87.148083 
L 388.904483 89.730558 
L 391.963414 88.097414 
L 395.022345 87.297386 
L 398.081276 86.881699 
L 401.140207 88.095419 
L 404.199138 91.576078 
L 410.317 92.940057 
L 416.434862 90.741742 
L 419.493793 90.137544 
L 422.552724 88.516669 
L 425.611655 84.432033 
L 428.670586 82.960434 
L 431.729517 81.155392 
L 434.788448 80.381726 
L 437.847379 65.88687 
L 440.90631 71.729709 
L 443.965241 71.00671 
L 447.024172 73.908516 
L 450.083103 61.775529 
L 453.142034 61.630058 
L 456.200965 59.704602 
L 459.259896 63.700441 
L 462.318827 73.699299 
L 465.377758 71.373387 
L 468.436689 74.302434 
L 471.49562 83.418655 
L 474.554551 87.264663 
L 477.613482 98.17231 
L 480.672413 105.135878 
L 483.731344 110.351608 
L 486.790275 101.329644 
L 489.849206 67.067817 
L 492.908137 81.755454 
L 495.967068 99.50439 
L 499.025999 108.709018 
L 502.08493 115.927257 
L 505.143861 126.324221 
L 508.202792 129.739735 
L 511.261723 132.467208 
L 514.320654 131.487466 
L 517.379585 127.987576 
L 520.438516 118.191565 
L 523.497447 107.405858 
L 526.556378 99.500242 
L 529.61531 87.168873 
L 532.674241 75.676902 
L 535.733172 76.661542 
L 538.792103 75.558518 
L 541.851034 77.562724 
L 544.909965 77.272445 
L 547.968896 75.31594 
L 551.027827 77.935195 
L 554.086758 79.259814 
L 557.145689 76.925053 
L 560.20462 74.930668 
L 563.263551 66.156181 
L 566.322482 66.37605 
L 569.381413 66.925056 
L 572.440344 68.031057 
L 575.499275 64.654508 
L 578.558206 63.275014 
L 581.617137 64.721609 
L 584.676068 65.008323 
L 587.734999 68.087339 
L 590.79393 67.377141 
L 593.852861 59.77365 
L 596.911792 57.809825 
L 599.970723 58.036569 
L 603.029654 60.700791 
L 606.088585 59.970965 
L 609.147516 61.334689 
L 612.206447 63.065779 
L 615.265378 65.182767 
L 618.324309 66.600451 
L 621.38324 74.448131 
L 624.442171 84.144087 
L 627.501102 91.585701 
L 630.560033 94.118565 
L 633.618964 88.31102 
L 636.677895 77.155393 
L 639.736826 100.456013 
L 642.795757 113.842343 
L 645.854688 123.241288 
L 648.913619 130.658633 
L 651.97255 141.982044 
L 655.031481 146.634197 
L 658.090412 148.046771 
L 661.149343 147.434501 
L 664.208274 144.445765 
L 667.267205 137.037196 
L 670.326136 126.749224 
L 670.326136 126.749224 
" style="fill:none;stroke:#8172b2;stroke-linecap:round;stroke-width:1.75;"/>
   </g>
   <g id="patch_3">
    <path d="M 31.1625 226.149168 
L 31.1625 8.709168 
" style="fill:none;"/>
   </g>
   <g id="patch_4">
    <path d="M 700.7625 226.149168 
L 700.7625 8.709168 
" style="fill:none;"/>
   </g>
   <g id="patch_5">
    <path d="M 31.1625 226.149168 
L 700.7625 226.149168 
" style="fill:none;"/>
   </g>
   <g id="patch_6">
    <path d="M 31.1625 8.709168 
L 700.7625 8.709168 
" style="fill:none;"/>
   </g>
   <g id="legend_1">
    <g id="line2d_35">
     <path d="M 40.1625 168.991356 
L 60.1625 168.991356 
" style="fill:none;stroke:#4c72b0;stroke-linecap:round;stroke-width:1.75;"/>
    </g>
    <g id="line2d_36"/>
    <g id="text_16">
     <!-- Actual price -->
     <g style="fill:#262626;" transform="translate(68.1625 172.491356)scale(0.1 -0.1)">
      <defs>
       <path d="M -9 0 
L 1750 4581 
L 2403 4581 
L 4278 0 
L 3588 0 
L 3053 1388 
L 1138 1388 
L 634 0 
L -9 0 
z
M 1313 1881 
L 2866 1881 
L 2388 3150 
Q 2169 3728 2063 4100 
Q 1975 3659 1816 3225 
L 1313 1881 
z
" id="ArialMT-41" transform="scale(0.015625)"/>
       <path d="M 2588 1216 
L 3141 1144 
Q 3050 572 2676 248 
Q 2303 -75 1759 -75 
Q 1078 -75 664 370 
Q 250 816 250 1647 
Q 250 2184 428 2587 
Q 606 2991 970 3192 
Q 1334 3394 1763 3394 
Q 2303 3394 2647 3120 
Q 2991 2847 3088 2344 
L 2541 2259 
Q 2463 2594 2264 2762 
Q 2066 2931 1784 2931 
Q 1359 2931 1093 2626 
Q 828 2322 828 1663 
Q 828 994 1084 691 
Q 1341 388 1753 388 
Q 2084 388 2306 591 
Q 2528 794 2588 1216 
z
" id="ArialMT-63" transform="scale(0.015625)"/>
       <path d="M 1650 503 
L 1731 6 
Q 1494 -44 1306 -44 
Q 1000 -44 831 53 
Q 663 150 594 308 
Q 525 466 525 972 
L 525 2881 
L 113 2881 
L 113 3319 
L 525 3319 
L 525 4141 
L 1084 4478 
L 1084 3319 
L 1650 3319 
L 1650 2881 
L 1084 2881 
L 1084 941 
Q 1084 700 1114 631 
Q 1144 563 1211 522 
Q 1278 481 1403 481 
Q 1497 481 1650 503 
z
" id="ArialMT-74" transform="scale(0.015625)"/>
       <path d="M 2597 0 
L 2597 488 
Q 2209 -75 1544 -75 
Q 1250 -75 995 37 
Q 741 150 617 320 
Q 494 491 444 738 
Q 409 903 409 1263 
L 409 3319 
L 972 3319 
L 972 1478 
Q 972 1038 1006 884 
Q 1059 663 1231 536 
Q 1403 409 1656 409 
Q 1909 409 2131 539 
Q 2353 669 2445 892 
Q 2538 1116 2538 1541 
L 2538 3319 
L 3100 3319 
L 3100 0 
L 2597 0 
z
" id="ArialMT-75" transform="scale(0.015625)"/>
       <path d="M 2588 409 
Q 2275 144 1986 34 
Q 1697 -75 1366 -75 
Q 819 -75 525 192 
Q 231 459 231 875 
Q 231 1119 342 1320 
Q 453 1522 633 1644 
Q 813 1766 1038 1828 
Q 1203 1872 1538 1913 
Q 2219 1994 2541 2106 
Q 2544 2222 2544 2253 
Q 2544 2597 2384 2738 
Q 2169 2928 1744 2928 
Q 1347 2928 1158 2789 
Q 969 2650 878 2297 
L 328 2372 
Q 403 2725 575 2942 
Q 747 3159 1072 3276 
Q 1397 3394 1825 3394 
Q 2250 3394 2515 3294 
Q 2781 3194 2906 3042 
Q 3031 2891 3081 2659 
Q 3109 2516 3109 2141 
L 3109 1391 
Q 3109 606 3145 398 
Q 3181 191 3288 0 
L 2700 0 
Q 2613 175 2588 409 
z
M 2541 1666 
Q 2234 1541 1622 1453 
Q 1275 1403 1131 1340 
Q 988 1278 909 1158 
Q 831 1038 831 891 
Q 831 666 1001 516 
Q 1172 366 1500 366 
Q 1825 366 2078 508 
Q 2331 650 2450 897 
Q 2541 1088 2541 1459 
L 2541 1666 
z
" id="ArialMT-61" transform="scale(0.015625)"/>
       <path d="M 409 0 
L 409 4581 
L 972 4581 
L 972 0 
L 409 0 
z
" id="ArialMT-6c" transform="scale(0.015625)"/>
       <path id="ArialMT-20" transform="scale(0.015625)"/>
       <path d="M 422 -1272 
L 422 3319 
L 934 3319 
L 934 2888 
Q 1116 3141 1344 3267 
Q 1572 3394 1897 3394 
Q 2322 3394 2647 3175 
Q 2972 2956 3137 2557 
Q 3303 2159 3303 1684 
Q 3303 1175 3120 767 
Q 2938 359 2589 142 
Q 2241 -75 1856 -75 
Q 1575 -75 1351 44 
Q 1128 163 984 344 
L 984 -1272 
L 422 -1272 
z
M 931 1641 
Q 931 1000 1190 694 
Q 1450 388 1819 388 
Q 2194 388 2461 705 
Q 2728 1022 2728 1688 
Q 2728 2322 2467 2637 
Q 2206 2953 1844 2953 
Q 1484 2953 1207 2617 
Q 931 2281 931 1641 
z
" id="ArialMT-70" transform="scale(0.015625)"/>
       <path d="M 416 0 
L 416 3319 
L 922 3319 
L 922 2816 
Q 1116 3169 1280 3281 
Q 1444 3394 1641 3394 
Q 1925 3394 2219 3213 
L 2025 2691 
Q 1819 2813 1613 2813 
Q 1428 2813 1281 2702 
Q 1134 2591 1072 2394 
Q 978 2094 978 1738 
L 978 0 
L 416 0 
z
" id="ArialMT-72" transform="scale(0.015625)"/>
       <path d="M 425 3934 
L 425 4581 
L 988 4581 
L 988 3934 
L 425 3934 
z
M 425 0 
L 425 3319 
L 988 3319 
L 988 0 
L 425 0 
z
" id="ArialMT-69" transform="scale(0.015625)"/>
       <path d="M 2694 1069 
L 3275 997 
Q 3138 488 2766 206 
Q 2394 -75 1816 -75 
Q 1088 -75 661 373 
Q 234 822 234 1631 
Q 234 2469 665 2931 
Q 1097 3394 1784 3394 
Q 2450 3394 2872 2941 
Q 3294 2488 3294 1666 
Q 3294 1616 3291 1516 
L 816 1516 
Q 847 969 1125 678 
Q 1403 388 1819 388 
Q 2128 388 2347 550 
Q 2566 713 2694 1069 
z
M 847 1978 
L 2700 1978 
Q 2663 2397 2488 2606 
Q 2219 2931 1791 2931 
Q 1403 2931 1139 2672 
Q 875 2413 847 1978 
z
" id="ArialMT-65" transform="scale(0.015625)"/>
      </defs>
      <use xlink:href="#ArialMT-41"/>
      <use x="66.699219" xlink:href="#ArialMT-63"/>
      <use x="116.699219" xlink:href="#ArialMT-74"/>
      <use x="144.482422" xlink:href="#ArialMT-75"/>
      <use x="200.097656" xlink:href="#ArialMT-61"/>
      <use x="255.712891" xlink:href="#ArialMT-6c"/>
      <use x="277.929688" xlink:href="#ArialMT-20"/>
      <use x="305.712891" xlink:href="#ArialMT-70"/>
      <use x="361.328125" xlink:href="#ArialMT-72"/>
      <use x="394.628906" xlink:href="#ArialMT-69"/>
      <use x="416.845703" xlink:href="#ArialMT-63"/>
      <use x="466.845703" xlink:href="#ArialMT-65"/>
     </g>
    </g>
    <g id="line2d_37">
     <path d="M 40.1625 183.136668 
L 60.1625 183.136668 
" style="fill:none;stroke:#55a868;stroke-linecap:round;stroke-width:1.75;"/>
    </g>
    <g id="line2d_38"/>
    <g id="text_17">
     <!-- With known demand -->
     <g style="fill:#262626;" transform="translate(68.1625 186.636668)scale(0.1 -0.1)">
      <defs>
       <path d="M 1294 0 
L 78 4581 
L 700 4581 
L 1397 1578 
Q 1509 1106 1591 641 
Q 1766 1375 1797 1488 
L 2669 4581 
L 3400 4581 
L 4056 2263 
Q 4303 1400 4413 641 
Q 4500 1075 4641 1638 
L 5359 4581 
L 5969 4581 
L 4713 0 
L 4128 0 
L 3163 3491 
Q 3041 3928 3019 4028 
Q 2947 3713 2884 3491 
L 1913 0 
L 1294 0 
z
" id="ArialMT-57" transform="scale(0.015625)"/>
       <path d="M 422 0 
L 422 4581 
L 984 4581 
L 984 2938 
Q 1378 3394 1978 3394 
Q 2347 3394 2619 3248 
Q 2891 3103 3008 2847 
Q 3125 2591 3125 2103 
L 3125 0 
L 2563 0 
L 2563 2103 
Q 2563 2525 2380 2717 
Q 2197 2909 1863 2909 
Q 1613 2909 1392 2779 
Q 1172 2650 1078 2428 
Q 984 2206 984 1816 
L 984 0 
L 422 0 
z
" id="ArialMT-68" transform="scale(0.015625)"/>
       <path d="M 425 0 
L 425 4581 
L 988 4581 
L 988 1969 
L 2319 3319 
L 3047 3319 
L 1778 2088 
L 3175 0 
L 2481 0 
L 1384 1697 
L 988 1316 
L 988 0 
L 425 0 
z
" id="ArialMT-6b" transform="scale(0.015625)"/>
       <path d="M 422 0 
L 422 3319 
L 928 3319 
L 928 2847 
Q 1294 3394 1984 3394 
Q 2284 3394 2536 3286 
Q 2788 3178 2913 3003 
Q 3038 2828 3088 2588 
Q 3119 2431 3119 2041 
L 3119 0 
L 2556 0 
L 2556 2019 
Q 2556 2363 2490 2533 
Q 2425 2703 2258 2804 
Q 2091 2906 1866 2906 
Q 1506 2906 1245 2678 
Q 984 2450 984 1813 
L 984 0 
L 422 0 
z
" id="ArialMT-6e" transform="scale(0.015625)"/>
       <path d="M 213 1659 
Q 213 2581 725 3025 
Q 1153 3394 1769 3394 
Q 2453 3394 2887 2945 
Q 3322 2497 3322 1706 
Q 3322 1066 3130 698 
Q 2938 331 2570 128 
Q 2203 -75 1769 -75 
Q 1072 -75 642 372 
Q 213 819 213 1659 
z
M 791 1659 
Q 791 1022 1069 705 
Q 1347 388 1769 388 
Q 2188 388 2466 706 
Q 2744 1025 2744 1678 
Q 2744 2294 2464 2611 
Q 2184 2928 1769 2928 
Q 1347 2928 1069 2612 
Q 791 2297 791 1659 
z
" id="ArialMT-6f" transform="scale(0.015625)"/>
       <path d="M 1034 0 
L 19 3319 
L 600 3319 
L 1128 1403 
L 1325 691 
Q 1338 744 1497 1375 
L 2025 3319 
L 2603 3319 
L 3100 1394 
L 3266 759 
L 3456 1400 
L 4025 3319 
L 4572 3319 
L 3534 0 
L 2950 0 
L 2422 1988 
L 2294 2553 
L 1622 0 
L 1034 0 
z
" id="ArialMT-77" transform="scale(0.015625)"/>
       <path d="M 2575 0 
L 2575 419 
Q 2259 -75 1647 -75 
Q 1250 -75 917 144 
Q 584 363 401 755 
Q 219 1147 219 1656 
Q 219 2153 384 2558 
Q 550 2963 881 3178 
Q 1213 3394 1622 3394 
Q 1922 3394 2156 3267 
Q 2391 3141 2538 2938 
L 2538 4581 
L 3097 4581 
L 3097 0 
L 2575 0 
z
M 797 1656 
Q 797 1019 1065 703 
Q 1334 388 1700 388 
Q 2069 388 2326 689 
Q 2584 991 2584 1609 
Q 2584 2291 2321 2609 
Q 2059 2928 1675 2928 
Q 1300 2928 1048 2622 
Q 797 2316 797 1656 
z
" id="ArialMT-64" transform="scale(0.015625)"/>
       <path d="M 422 0 
L 422 3319 
L 925 3319 
L 925 2853 
Q 1081 3097 1340 3245 
Q 1600 3394 1931 3394 
Q 2300 3394 2536 3241 
Q 2772 3088 2869 2813 
Q 3263 3394 3894 3394 
Q 4388 3394 4653 3120 
Q 4919 2847 4919 2278 
L 4919 0 
L 4359 0 
L 4359 2091 
Q 4359 2428 4304 2576 
Q 4250 2725 4106 2815 
Q 3963 2906 3769 2906 
Q 3419 2906 3187 2673 
Q 2956 2441 2956 1928 
L 2956 0 
L 2394 0 
L 2394 2156 
Q 2394 2531 2256 2718 
Q 2119 2906 1806 2906 
Q 1569 2906 1367 2781 
Q 1166 2656 1075 2415 
Q 984 2175 984 1722 
L 984 0 
L 422 0 
z
" id="ArialMT-6d" transform="scale(0.015625)"/>
      </defs>
      <use xlink:href="#ArialMT-57"/>
      <use x="94.384766" xlink:href="#ArialMT-69"/>
      <use x="116.601562" xlink:href="#ArialMT-74"/>
      <use x="144.384766" xlink:href="#ArialMT-68"/>
      <use x="200" xlink:href="#ArialMT-20"/>
      <use x="227.783203" xlink:href="#ArialMT-6b"/>
      <use x="277.783203" xlink:href="#ArialMT-6e"/>
      <use x="333.398438" xlink:href="#ArialMT-6f"/>
      <use x="389.013672" xlink:href="#ArialMT-77"/>
      <use x="461.230469" xlink:href="#ArialMT-6e"/>
      <use x="516.845703" xlink:href="#ArialMT-20"/>
      <use x="544.628906" xlink:href="#ArialMT-64"/>
      <use x="600.244141" xlink:href="#ArialMT-65"/>
      <use x="655.859375" xlink:href="#ArialMT-6d"/>
      <use x="739.160156" xlink:href="#ArialMT-61"/>
      <use x="794.775391" xlink:href="#ArialMT-6e"/>
      <use x="850.390625" xlink:href="#ArialMT-64"/>
     </g>
    </g>
    <g id="line2d_39">
     <path d="M 40.1625 197.281981 
L 60.1625 197.281981 
" style="fill:none;stroke:#c44e52;stroke-linecap:round;stroke-width:1.75;"/>
    </g>
    <g id="line2d_40"/>
    <g id="text_18">
     <!-- With predicted demand and known inter_gen -->
     <g style="fill:#262626;" transform="translate(68.1625 200.781981)scale(0.1 -0.1)">
      <defs>
       <path d="M -97 -1272 
L -97 -866 
L 3631 -866 
L 3631 -1272 
L -97 -1272 
z
" id="ArialMT-5f" transform="scale(0.015625)"/>
       <path d="M 319 -275 
L 866 -356 
Q 900 -609 1056 -725 
Q 1266 -881 1628 -881 
Q 2019 -881 2231 -725 
Q 2444 -569 2519 -288 
Q 2563 -116 2559 434 
Q 2191 0 1641 0 
Q 956 0 581 494 
Q 206 988 206 1678 
Q 206 2153 378 2554 
Q 550 2956 876 3175 
Q 1203 3394 1644 3394 
Q 2231 3394 2613 2919 
L 2613 3319 
L 3131 3319 
L 3131 450 
Q 3131 -325 2973 -648 
Q 2816 -972 2473 -1159 
Q 2131 -1347 1631 -1347 
Q 1038 -1347 672 -1080 
Q 306 -813 319 -275 
z
M 784 1719 
Q 784 1066 1043 766 
Q 1303 466 1694 466 
Q 2081 466 2343 764 
Q 2606 1063 2606 1700 
Q 2606 2309 2336 2618 
Q 2066 2928 1684 2928 
Q 1309 2928 1046 2623 
Q 784 2319 784 1719 
z
" id="ArialMT-67" transform="scale(0.015625)"/>
      </defs>
      <use xlink:href="#ArialMT-57"/>
      <use x="94.384766" xlink:href="#ArialMT-69"/>
      <use x="116.601562" xlink:href="#ArialMT-74"/>
      <use x="144.384766" xlink:href="#ArialMT-68"/>
      <use x="200" xlink:href="#ArialMT-20"/>
      <use x="227.783203" xlink:href="#ArialMT-70"/>
      <use x="283.398438" xlink:href="#ArialMT-72"/>
      <use x="316.699219" xlink:href="#ArialMT-65"/>
      <use x="372.314453" xlink:href="#ArialMT-64"/>
      <use x="427.929688" xlink:href="#ArialMT-69"/>
      <use x="450.146484" xlink:href="#ArialMT-63"/>
      <use x="500.146484" xlink:href="#ArialMT-74"/>
      <use x="527.929688" xlink:href="#ArialMT-65"/>
      <use x="583.544922" xlink:href="#ArialMT-64"/>
      <use x="639.160156" xlink:href="#ArialMT-20"/>
      <use x="666.943359" xlink:href="#ArialMT-64"/>
      <use x="722.558594" xlink:href="#ArialMT-65"/>
      <use x="778.173828" xlink:href="#ArialMT-6d"/>
      <use x="861.474609" xlink:href="#ArialMT-61"/>
      <use x="917.089844" xlink:href="#ArialMT-6e"/>
      <use x="972.705078" xlink:href="#ArialMT-64"/>
      <use x="1028.320312" xlink:href="#ArialMT-20"/>
      <use x="1056.103516" xlink:href="#ArialMT-61"/>
      <use x="1111.71875" xlink:href="#ArialMT-6e"/>
      <use x="1167.333984" xlink:href="#ArialMT-64"/>
      <use x="1222.949219" xlink:href="#ArialMT-20"/>
      <use x="1250.732422" xlink:href="#ArialMT-6b"/>
      <use x="1300.732422" xlink:href="#ArialMT-6e"/>
      <use x="1356.347656" xlink:href="#ArialMT-6f"/>
      <use x="1411.962891" xlink:href="#ArialMT-77"/>
      <use x="1484.179688" xlink:href="#ArialMT-6e"/>
      <use x="1539.794922" xlink:href="#ArialMT-20"/>
      <use x="1567.578125" xlink:href="#ArialMT-69"/>
      <use x="1589.794922" xlink:href="#ArialMT-6e"/>
      <use x="1645.410156" xlink:href="#ArialMT-74"/>
      <use x="1673.193359" xlink:href="#ArialMT-65"/>
      <use x="1728.808594" xlink:href="#ArialMT-72"/>
      <use x="1762.109375" xlink:href="#ArialMT-5f"/>
      <use x="1817.724609" xlink:href="#ArialMT-67"/>
      <use x="1873.339844" xlink:href="#ArialMT-65"/>
      <use x="1928.955078" xlink:href="#ArialMT-6e"/>
     </g>
    </g>
    <g id="line2d_41">
     <path d="M 40.1625 211.544481 
L 60.1625 211.544481 
" style="fill:none;stroke:#8172b2;stroke-linecap:round;stroke-width:1.75;"/>
    </g>
    <g id="line2d_42"/>
    <g id="text_19">
     <!-- With predicted demand only -->
     <g style="fill:#262626;" transform="translate(68.1625 215.044481)scale(0.1 -0.1)">
      <defs>
       <path d="M 397 -1278 
L 334 -750 
Q 519 -800 656 -800 
Q 844 -800 956 -737 
Q 1069 -675 1141 -563 
Q 1194 -478 1313 -144 
Q 1328 -97 1363 -6 
L 103 3319 
L 709 3319 
L 1400 1397 
Q 1534 1031 1641 628 
Q 1738 1016 1872 1384 
L 2581 3319 
L 3144 3319 
L 1881 -56 
Q 1678 -603 1566 -809 
Q 1416 -1088 1222 -1217 
Q 1028 -1347 759 -1347 
Q 597 -1347 397 -1278 
z
" id="ArialMT-79" transform="scale(0.015625)"/>
      </defs>
      <use xlink:href="#ArialMT-57"/>
      <use x="94.384766" xlink:href="#ArialMT-69"/>
      <use x="116.601562" xlink:href="#ArialMT-74"/>
      <use x="144.384766" xlink:href="#ArialMT-68"/>
      <use x="200" xlink:href="#ArialMT-20"/>
      <use x="227.783203" xlink:href="#ArialMT-70"/>
      <use x="283.398438" xlink:href="#ArialMT-72"/>
      <use x="316.699219" xlink:href="#ArialMT-65"/>
      <use x="372.314453" xlink:href="#ArialMT-64"/>
      <use x="427.929688" xlink:href="#ArialMT-69"/>
      <use x="450.146484" xlink:href="#ArialMT-63"/>
      <use x="500.146484" xlink:href="#ArialMT-74"/>
      <use x="527.929688" xlink:href="#ArialMT-65"/>
      <use x="583.544922" xlink:href="#ArialMT-64"/>
      <use x="639.160156" xlink:href="#ArialMT-20"/>
      <use x="666.943359" xlink:href="#ArialMT-64"/>
      <use x="722.558594" xlink:href="#ArialMT-65"/>
      <use x="778.173828" xlink:href="#ArialMT-6d"/>
      <use x="861.474609" xlink:href="#ArialMT-61"/>
      <use x="917.089844" xlink:href="#ArialMT-6e"/>
      <use x="972.705078" xlink:href="#ArialMT-64"/>
      <use x="1028.320312" xlink:href="#ArialMT-20"/>
      <use x="1056.103516" xlink:href="#ArialMT-6f"/>
      <use x="1111.71875" xlink:href="#ArialMT-6e"/>
      <use x="1167.333984" xlink:href="#ArialMT-6c"/>
      <use x="1189.550781" xlink:href="#ArialMT-79"/>
     </g>
    </g>
   </g>
  </g>
 </g>
 <defs>
  <clipPath id="p6c4c492600">
   <rect height="217.44" width="669.6" x="31.1625" y="8.709168"/>
  </clipPath>
 </defs>
</svg>
